<svg width="113" height="89" viewBox="0 0 113 89" fill="none" xmlns="http://www.w3.org/2000/svg">
<g clip-path="url(#clip0_40_446)">
<path d="M27.1292 48.2545C26.2273 43.4283 27.6472 37.9376 31.5936 35.0163C31.3699 40.3508 33.0406 45.5925 36.3099 49.8139C37.5767 51.4374 39.1547 53.1112 39.1056 55.1698C39.0752 56.4506 38.3824 57.6439 37.4694 58.5428C36.5564 59.4418 35.4317 60.09 34.3205 60.728L34.1476 60.9971C30.8901 57.3232 28.031 53.0807 27.1292 48.2545Z" fill="#F0F0F0"/>
<path d="M31.6655 35.0901C30.0075 38.8004 29.5608 42.9388 30.3889 46.9174C30.552 47.7771 30.8496 48.6057 31.2707 49.3727C31.7051 50.1066 32.3281 50.7108 33.075 51.1226C33.7637 51.5205 34.5142 51.8478 35.0942 52.4061C35.3868 52.6963 35.6148 53.0451 35.7631 53.4296C35.9115 53.8141 35.9769 54.2256 35.955 54.6372C35.9273 55.664 35.5321 56.6197 35.1133 57.5408C34.6482 58.5635 34.1489 59.6184 34.1791 60.7682C34.1827 60.9075 33.9663 60.9051 33.9627 60.766C33.9102 58.7655 35.3566 57.1589 35.6789 55.2393C35.8293 54.3436 35.7107 53.3972 35.0809 52.7029C34.5302 52.0958 33.7565 51.7577 33.0557 51.3608C32.3212 50.9698 31.6936 50.4049 31.2277 49.7155C30.7689 48.9724 30.4399 48.1567 30.2548 47.3032C29.8075 45.3884 29.664 43.4152 29.8296 41.4558C30.0063 39.2185 30.5644 37.028 31.4798 34.9789C31.5365 34.8521 31.7218 34.9641 31.6655 35.0901Z" fill="white"/>
<path d="M30.0469 45.652C29.3605 45.7004 28.6792 45.5031 28.1248 45.0955C27.5703 44.6879 27.1788 44.0966 27.0202 43.427C26.9886 43.2914 27.1978 43.2359 27.2295 43.3717C27.376 43.9954 27.7408 44.5463 28.2578 44.9248C28.7749 45.3032 29.4102 45.4844 30.0492 45.4357C30.1881 45.4252 30.185 45.6417 30.0469 45.652Z" fill="white"/>
<path d="M32.6992 50.9668C33.6311 49.9132 34.1315 48.547 34.1008 47.1408C34.0976 47.0014 34.314 47.0039 34.3172 47.143C34.3464 48.6064 33.8228 50.0271 32.8506 51.1215C32.7579 51.2257 32.607 51.0705 32.6992 50.9668Z" fill="white"/>
<path d="M30.2599 39.3529C30.5294 39.3896 30.8037 39.3587 31.0584 39.2631C31.313 39.1675 31.5399 39.0102 31.7187 38.8053C31.81 38.6999 31.9609 38.8552 31.8701 38.9599C31.6715 39.1854 31.4207 39.3588 31.1396 39.4651C30.8585 39.5713 30.5557 39.6071 30.2576 39.5693C30.2292 39.5681 30.2023 39.5561 30.1824 39.5358C30.1625 39.5155 30.1511 39.4884 30.1505 39.46C30.151 39.4313 30.1627 39.404 30.1832 39.384C30.2036 39.3639 30.2312 39.3528 30.2599 39.3529Z" fill="white"/>
<path d="M47.7322 39.0083C47.6771 39.0758 47.6219 39.1432 47.5672 39.2124C46.83 40.1226 46.1681 41.0911 45.5878 42.1085C45.5417 42.1865 45.4961 42.2662 45.4524 42.3453C44.0805 44.8113 43.1785 47.5106 42.7921 50.3058C42.6394 51.4183 42.5715 52.5407 42.5891 53.6635C42.6135 55.214 42.7633 56.8933 42.288 58.3194C42.2401 58.4687 42.1829 58.6149 42.1169 58.7572L34.4892 61.1872C34.4691 61.184 34.4495 61.1826 34.4293 61.1795L34.1292 61.2904C34.1242 61.2326 34.1203 61.1725 34.1154 61.1146C34.1124 61.0811 34.1111 61.047 34.108 61.0135C34.1066 60.9909 34.1052 60.9684 34.1026 60.9481C34.102 60.9406 34.1016 60.9331 34.1017 60.9273C34.099 60.9071 34.0988 60.888 34.0967 60.8695C34.074 60.5336 34.053 60.1972 34.0356 59.8597C34.0351 59.8579 34.0351 59.8579 34.0362 59.8556C33.9053 57.2848 33.9878 54.6805 34.4631 52.1715C34.4774 52.096 34.4911 52.0188 34.5089 51.9422C34.7294 50.8124 35.0419 49.7026 35.4433 48.6237C35.6649 48.0337 35.9163 47.4553 36.1965 46.8906C36.9232 45.4331 37.8746 44.099 39.016 42.9371C41.2915 40.6213 44.2825 39.0589 47.4873 39.0097C47.5693 39.0085 47.6497 39.0078 47.7322 39.0083Z" fill="#F0F0F0"/>
<path d="M47.7459 39.1106C44.188 41.075 41.3395 44.1103 39.6051 47.7856C39.2177 48.5702 38.9563 49.4109 38.8307 50.2768C38.7356 51.1243 38.8692 51.9818 39.2177 52.7602C39.528 53.4925 39.9302 54.2056 40.057 55.0006C40.1159 55.4085 40.0879 55.8242 39.9749 56.2205C39.8618 56.6168 39.6662 56.9848 39.401 57.3002C38.7605 58.1034 37.8696 58.6285 36.9806 59.1118C35.9934 59.6484 34.9596 60.1902 34.2913 61.1264C34.2104 61.2398 34.0391 61.1076 34.1199 60.9943C35.2826 59.3654 37.4048 58.9534 38.818 57.6148C39.4774 56.9902 39.9525 56.1631 39.8677 55.2296C39.7936 54.4133 39.3795 53.6775 39.0589 52.9388C38.7078 52.1844 38.5469 51.3556 38.59 50.5247C38.6711 49.6551 38.8996 48.8057 39.2657 48.0129C40.0615 46.2147 41.1351 44.5528 42.4471 43.0881C43.9353 41.4081 45.6999 39.995 47.6646 38.91C47.7862 38.8429 47.8668 39.0439 47.7459 39.1106Z" fill="white"/>
<path d="M40.0939 46.5693C39.5167 46.1946 39.0915 45.627 38.8942 44.9678C38.697 44.3086 38.7405 43.6007 39.017 42.9706C39.0733 42.8433 39.2738 42.9249 39.2174 43.0524C38.9588 43.6387 38.9184 44.2981 39.1033 44.9115C39.2882 45.525 39.6864 46.0522 40.226 46.3979C40.3431 46.4731 40.2104 46.6441 40.0939 46.5693Z" fill="white"/>
<path d="M39.0114 52.4096C40.39 52.1293 41.6121 51.3397 42.4343 50.1984C42.5157 50.0853 42.687 50.2175 42.6058 50.3305C41.748 51.5166 40.4744 52.3356 39.0393 52.6242C38.9024 52.6516 38.8754 52.4368 39.0114 52.4096Z" fill="white"/>
<path d="M44.0568 41.668C44.2499 41.8595 44.4876 42.0001 44.7484 42.077C45.0093 42.154 45.2852 42.165 45.5513 42.109C45.6877 42.0798 45.7146 42.2946 45.5791 42.3236C45.2848 42.3841 44.9801 42.3716 44.6917 42.2872C44.4033 42.2028 44.14 42.049 43.9247 41.8394C43.9027 41.8213 43.8885 41.7956 43.8848 41.7674C43.8812 41.7392 43.8884 41.7107 43.905 41.6877C43.9226 41.6651 43.9484 41.6503 43.9769 41.6466C44.0053 41.6429 44.034 41.6506 44.0568 41.668Z" fill="white"/>
<path d="M59.7136 12.6167C59.7392 12.7291 59.7559 12.8432 59.7635 12.9582L68.7067 18.117L70.8805 16.8657L73.1978 19.8991L69.5649 22.4882C69.2714 22.6974 68.918 22.8057 68.5577 22.7969C68.1974 22.7882 67.8496 22.6628 67.5667 22.4395L58.3446 15.165C57.9285 15.319 57.4752 15.3427 57.0453 15.2329C56.6153 15.1231 56.2289 14.885 55.9376 14.5503C55.6462 14.2156 55.4637 13.8001 55.4142 13.3591C55.3648 12.9182 55.4508 12.4726 55.6608 12.0817C55.8708 11.6908 56.1949 11.373 56.5899 11.1708C56.9849 10.9685 57.4321 10.8913 57.8721 10.9494C58.3121 11.0075 58.7239 11.1981 59.0529 11.496C59.3818 11.7938 59.6123 12.1847 59.7136 12.6167Z" fill="#FFB6B6"/>
<path d="M68.8308 17.5474C68.8591 17.4158 68.9156 17.2919 68.9962 17.1841C69.0768 17.0763 69.1798 16.9871 69.298 16.9227L73.4269 14.6733C73.9768 14.2584 74.6687 14.0784 75.3511 14.1728C76.0335 14.2673 76.6505 14.6285 77.0669 15.1772C77.4834 15.7259 77.6652 16.4173 77.5725 17.0999C77.4798 17.7824 77.1202 18.4003 76.5725 18.8181L73.2633 22.1796C73.1688 22.2755 73.0548 22.35 72.929 22.3978C72.8032 22.4457 72.6685 22.466 72.5342 22.4571C72.3998 22.4483 72.269 22.4106 72.1505 22.3466C72.0321 22.2827 71.9288 22.1939 71.8477 22.0865L68.9985 18.3093C68.9174 18.2018 68.8604 18.0781 68.8315 17.9466C68.8025 17.8151 68.8023 17.679 68.8308 17.5474Z" fill="#3F3D56"/>
<path d="M76.2073 4.46998C76.8014 2.5769 78.1523 0.840631 80.0206 0.200666C81.889 -0.439298 84.6249 0.535575 86.0295 1.93531C88.5988 4.49571 89.2259 13.2916 87.4606 16.0712C87.1095 16.0526 85.8979 16.0389 85.5426 16.0256L85.0399 14.3502V16.0091C82.2661 15.9234 79.3784 15.977 76.4891 16.0325C76.2301 14.0645 75.6132 6.36307 76.2073 4.46998Z" fill="#2F2E41"/>
<path d="M75.4124 83.9317H72.8826L71.6791 74.1743L75.413 74.1745L75.4124 83.9317Z" fill="#FFB6B6"/>
<path d="M97.5593 82.3587L95.1112 82.9966L91.4851 73.8584L95.0983 72.9169L97.5593 82.3587Z" fill="#FFB6B6"/>
<path d="M83.6173 24.0036L84.1906 25.4938L84.0759 26.9841L72.8569 30.8695L73.4136 24.3475L74.6746 22.857L83.6173 24.0036Z" fill="#FFB6B6"/>
<path d="M80.0701 10.5924C82.2831 10.5924 84.0771 8.79863 84.0771 6.58585C84.0771 4.37307 82.2831 2.57925 80.0701 2.57925C77.8571 2.57925 76.0631 4.37307 76.0631 6.58585C76.0631 8.79863 77.8571 10.5924 80.0701 10.5924Z" fill="#FFB7B7"/>
<path d="M77.3168 1.36855C78.0867 0.899225 78.9686 0.645349 79.8702 0.633464C80.7719 0.621578 81.6601 0.85212 82.4422 1.30099C83.2242 1.74985 83.8713 2.40056 84.3157 3.18506C84.7601 3.96956 84.9856 4.85904 84.9686 5.76051C82.7844 6.31871 80.4567 6.55219 77.9901 5.89495L77.4263 4.51513L77.0939 5.89597C76.3392 6.42674 75.6109 6.42578 74.9088 5.8931C74.8791 4.99418 75.0858 4.10319 75.5083 3.3092C75.9309 2.51521 76.5545 1.84603 77.3168 1.36855Z" fill="#2F2E41"/>
<path d="M76.5441 88.735H74.7489L74.4285 87.0403L73.6078 88.735H68.8465C68.6183 88.735 68.396 88.6621 68.2122 88.5268C68.0283 88.3916 67.8925 88.2011 67.8246 87.9833C67.7567 87.7654 67.7602 87.5316 67.8346 87.3158C67.9091 87.1001 68.0505 86.9138 68.2383 86.7841L72.0405 84.1585V82.4452L76.0398 82.6838L76.5441 88.735Z" fill="#2F2E41"/>
<path d="M100.088 86.6634L98.3507 87.1161L97.6131 85.557L97.2465 87.4039L92.6392 88.6048C92.4183 88.6624 92.1848 88.6478 91.9728 88.5633C91.7608 88.4788 91.5814 88.3288 91.4607 88.1351C91.34 87.9414 91.2844 87.7142 91.302 87.4867C91.3196 87.2592 91.4095 87.0432 91.5585 86.8704L94.5754 83.3706L94.1432 81.7128L98.0734 80.9351L100.088 86.6634Z" fill="#2F2E41"/>
<path d="M97.2487 76.2225L89.833 60.9825L87.505 42.4335C89.1101 39.453 86.1292 33.3881 86.1292 33.3881V30.8417L74.5821 33.0199C72.2204 39.4609 71.0751 46.2844 71.2045 53.1434L71.6698 77.8002H71.5238C71.2816 77.8002 71.0493 77.8965 70.8781 78.0677C70.7068 78.2389 70.6106 78.4712 70.6106 78.7134C70.6106 78.9556 70.7068 79.1878 70.8781 79.3591C71.0493 79.5303 71.2816 79.6265 71.5238 79.6265H76.09C76.3323 79.6265 76.5645 79.5303 76.7358 79.3591C76.9071 79.1878 77.0033 78.9556 77.0033 78.7134C77.0033 78.4712 76.9071 78.2389 76.7358 78.0677C76.5645 77.8965 76.3323 77.8002 76.09 77.8002H75.9723L79.2503 46.4324L83.0618 61.9116L92.2727 76.1639C92.0377 76.1823 91.819 76.2909 91.6625 76.467C91.506 76.6432 91.4238 76.8731 91.4333 77.1086C91.4427 77.344 91.5431 77.5667 91.7132 77.7297C91.8834 77.8927 92.1101 77.9835 92.3457 77.9829H96.912C97.1243 77.9831 97.3301 77.9092 97.4939 77.774C97.6576 77.6388 97.769 77.4506 97.809 77.2421C97.8489 77.0335 97.8147 76.8175 97.7125 76.6314C97.6102 76.4453 97.4462 76.3007 97.2487 76.2225Z" fill="#2F2E41"/>
<path d="M87.1733 34.9493C87.1354 34.8002 87.0512 34.6671 86.9329 34.5688C86.8147 34.4706 86.6683 34.4123 86.5149 34.4023C86.3626 32.6623 85.357 21.5034 85.3187 21.176L85.3172 21.1622L85.026 14.9422C85.0155 14.7163 84.922 14.5023 84.7636 14.3409C84.6051 14.1795 84.3928 14.0821 84.1671 14.0674L82.6291 13.9669C82.608 13.9661 82.588 13.9573 82.5733 13.9421C82.5586 13.9269 82.5504 13.9066 82.5504 13.8855C82.5504 13.7157 82.517 13.5475 82.452 13.3906C82.387 13.2337 82.2917 13.0911 82.1716 12.9711C82.0515 12.851 81.9089 12.7557 81.752 12.6907C81.5951 12.6257 81.4269 12.5923 81.257 12.5923H76.7034C76.4085 12.5924 76.1237 12.7001 75.9026 12.8953C75.6814 13.0904 75.5391 13.3596 75.5024 13.6522C75.5004 13.6724 75.4908 13.691 75.4756 13.7044C75.4605 13.7178 75.4408 13.725 75.4206 13.7245L75.42 13.7245C74.9026 13.7139 74.3985 13.889 73.9992 14.2182C73.5999 14.5474 73.3318 15.0088 73.2437 15.5188C72.6211 19.1405 71.3735 27.3604 71.9904 31.9303C72.2051 33.5211 72.1075 35.9137 72.0263 37.2447C72.0182 37.3734 72.0356 37.5023 72.0775 37.6242C72.1193 37.7461 72.1848 37.8586 72.2702 37.9551C72.0886 38.0075 71.9345 38.1283 71.8402 38.292C71.7459 38.4558 71.719 38.6498 71.765 38.8331C71.8123 39.021 71.9324 39.1824 72.0987 39.2817C72.2651 39.3811 72.4641 39.4103 72.652 39.3629L86.6435 35.8362C86.8314 35.7888 86.9927 35.6688 87.0921 35.5024C87.1915 35.3361 87.2207 35.1371 87.1733 34.9493Z" fill="#3F3D56"/>
<path d="M64.049 61.0987C64.0464 60.6903 63.8993 60.296 63.6336 59.9857C63.368 59.6754 63.001 59.4692 62.5978 59.4037L37.7915 55.3306C37.5537 55.2912 37.3102 55.302 37.0767 55.3623L31.2632 56.8654L27.9276 57.7288L21.7719 59.3199C21.4003 59.4164 21.0712 59.6335 20.8363 59.9371C20.6014 60.2408 20.4739 60.6138 20.4738 60.9977V86.9885C20.4756 87.3847 20.6125 87.7685 20.8619 88.0764C21.1113 88.3843 21.4583 88.598 21.8455 88.6821L47.1125 88.396C47.2311 88.4215 47.3521 88.4341 47.4735 88.4335C47.6503 88.4339 47.8261 88.4071 47.9948 88.3541L63.0065 88.7276C63.3607 88.6171 63.6699 88.3953 63.8882 88.0951C64.1064 87.795 64.2221 87.4325 64.218 87.0614L64.049 61.0987Z" fill="white"/>
<path d="M64.049 61.0987C64.0464 60.6903 63.8993 60.296 63.6336 59.9857C63.368 59.6754 63.001 59.4692 62.5978 59.4037L37.7915 55.3306C37.5537 55.2912 37.3102 55.302 37.0767 55.3623L31.2632 56.8654L27.9276 57.7288L21.7719 59.3199C21.4003 59.4164 21.0712 59.6335 20.8363 59.9371C20.6014 60.2408 20.4739 60.6138 20.4738 60.9977V86.9885C20.4756 87.3847 20.6125 87.7685 20.8619 88.0764C21.1113 88.3843 21.4583 88.598 21.8455 88.6821L47.1125 88.396C47.2311 88.4215 47.3521 88.4341 47.4735 88.4335C47.6503 88.4339 47.8261 88.4071 47.9948 88.3541L63.0065 88.7276C63.3607 88.6171 63.6699 88.3953 63.8882 88.0951C64.1064 87.795 64.2221 87.4325 64.218 87.0614L64.049 61.0987ZM62.8765 88.3147L47.8648 88.6717C47.6506 88.7384 47.423 88.7494 47.2034 88.7035L21.9351 88.2591C21.6447 88.1958 21.3847 88.0354 21.1977 87.8044C21.0108 87.5734 20.9083 87.2856 20.907 86.9885V60.9977C20.9071 60.7316 20.9889 60.472 21.1413 60.2538C21.2936 60.0357 21.5092 59.8695 21.7589 59.7776C21.7986 59.7627 21.8391 59.7502 21.8802 59.7401L28.3926 58.0566L32.2437 57.0603L37.185 55.7825C37.291 55.7542 37.4003 55.7401 37.5099 55.7406C37.5806 55.7406 37.6511 55.7464 37.7208 55.758L62.5271 59.831C62.7267 59.8638 62.9159 59.9425 63.0798 60.0611C63.2438 60.1796 63.3778 60.3347 63.4714 60.514C63.5651 60.6958 63.6146 60.8971 63.6158 61.1016L63.7848 87.0643C63.7879 87.3427 63.7013 87.6146 63.5376 87.8398C63.374 88.0651 63.1422 88.2316 62.8765 88.3147Z" fill="#CCCCCC"/>
<path d="M63.4714 60.514C63.4546 60.525 63.436 60.5333 63.4166 60.5385L56.1201 62.5108L53.8487 63.1244L47.3883 64.87C47.3698 64.8746 47.3509 64.877 47.332 64.8773C47.3189 64.877 47.3059 64.8761 47.293 64.8744L21.2434 60.1256L21.1568 60.1097C21.1003 60.0991 21.0504 60.0666 21.0178 60.0193C20.9853 59.972 20.9728 59.9137 20.9831 59.8572C20.9934 59.8007 21.0257 59.7506 21.0728 59.7179C21.12 59.6851 21.1782 59.6723 21.2347 59.6823L21.7589 59.7776L47.3233 64.4383L52.8913 62.9339L56.006 62.0921L63.1898 60.1501L63.3039 60.1198C63.3532 60.1068 63.4056 60.1115 63.4517 60.1332C63.4979 60.1548 63.535 60.192 63.5566 60.2382C63.5622 60.2492 63.5666 60.2608 63.5696 60.2728C63.5815 60.3182 63.5784 60.3663 63.5607 60.4098C63.543 60.4532 63.5117 60.4898 63.4714 60.514Z" fill="#CCCCCC"/>
<path d="M47.5484 88.4841C47.4297 88.4841 47.333 88.3885 47.3318 89L47.1152 65.3932C47.1141 64.5431 47.2103 64.4452 47.3299 64.4441H47.3318C47.4506 64.4441 47.5473 64.5397 47.5484 65.3892L47.765 88.9961C47.7662 88.3851 47.67 88.483 47.5504 88.4841H47.5484Z" fill="#CCCCCC"/>
<path d="M56.1815 88.758L53.8487 88.7827L52.8913 62.9339L28.4633 58.0739C28.4394 58.0696 28.4158 58.0639 28.3926 58.0566C28.2049 58.0031 28.041 57.8876 27.9276 57.7288L31.2632 56.8654L32.2437 57.0603L55.4226 61.6705C55.5445 61.6946 55.6597 61.7447 55.7604 61.8175C55.8611 61.8902 55.9449 61.9839 56.006 62.0921C56.0782 62.2177 56.18 88.6079 56.1815 88.758Z" fill="#CCCCCC"/>
<path d="M74.8669 13.7866C74.8649 13.4788 74.754 13.1816 74.5538 12.9478C74.3536 12.7139 74.0771 12.5585 73.7732 12.5091L55.0778 9.43946C54.8986 9.40978 54.7151 9.41794 54.5391 9.4634L50.1578 10.5962L47.6439 11.2469L43.0046 12.446C42.7245 12.5188 42.4765 12.6824 42.2995 12.9112C42.1224 13.14 42.0263 13.4211 42.0262 13.7105V29.0317C42.0276 29.3303 42.1308 29.6195 42.3188 29.8516C42.5068 30.0837 42.7683 30.2447 43.0601 30.3081L62.1026 34.3593C62.192 34.3785 62.2832 34.388 62.3747 34.3876C62.5079 34.3879 62.6404 34.3677 62.7675 34.3278L74.0812 30.7554C74.3482 30.672 74.5812 30.5049 74.7457 30.2787C74.9102 30.0525 74.9973 29.7793 74.9942 29.4996L74.8669 13.7866Z" fill="white"/>
<path d="M54.8662 10.5646C54.8525 10.5646 54.8389 10.5663 54.8257 10.5698L43.2911 13.5524C43.2561 13.5615 43.2252 13.5819 43.2031 13.6105C43.1809 13.639 43.1689 13.6741 43.1689 13.7102V29.0313C43.1691 29.0686 43.182 29.1047 43.2054 29.1337C43.2289 29.1627 43.2616 29.1828 43.298 29.1908L62.3405 33.2419C62.3681 33.2477 62.3967 33.2463 62.4236 33.2379L73.7375 29.6656C73.7708 29.6552 73.7999 29.6343 73.8204 29.606C73.8409 29.5777 73.8517 29.5436 73.8513 29.5087L73.7245 13.7958C73.7242 13.7573 73.7103 13.7202 73.6853 13.691C73.6603 13.6618 73.6258 13.6425 73.5878 13.6363L54.8925 10.5667C54.8838 10.5653 54.875 10.5646 54.8662 10.5646Z" fill="black"/>
<path d="M74.8669 13.7866C74.8649 13.4788 74.754 13.1816 74.5538 12.9478C74.3536 12.7139 74.0771 12.5585 73.7732 12.5091L55.0778 9.43946C54.8986 9.40978 54.7151 9.41794 54.5391 9.4634L50.1578 10.5962L47.6439 11.2469L43.0046 12.446C42.7245 12.5188 42.4765 12.6824 42.2995 12.9112C42.1224 13.14 42.0263 13.4211 42.0262 13.7105V29.0317C42.0276 29.3303 42.1308 29.6195 42.3188 29.8516C42.5068 30.0837 42.7683 30.2447 43.0601 30.3081L62.1026 34.3593C62.192 34.3785 62.2832 34.388 62.3747 34.3876C62.5079 34.3879 62.6404 34.3677 62.7675 34.3278L74.0812 30.7554C74.3482 30.672 74.5812 30.5049 74.7457 30.2787C74.9102 30.0525 74.9973 29.7793 74.9942 29.4996L74.8669 13.7866ZM73.9832 30.4441L62.6696 34.0166C62.5082 34.0668 62.3366 34.0751 62.1712 34.0405L43.1276 29.9893C42.9088 29.9416 42.7127 29.8207 42.5719 29.6466C42.431 29.4725 42.3537 29.2556 42.3527 29.0317V13.7105C42.3529 13.51 42.4145 13.3143 42.5293 13.1499C42.6441 12.9855 42.8066 12.8602 42.9948 12.791C43.0247 12.7798 43.0552 12.7703 43.0862 12.7627L47.9943 11.4939L50.8967 10.7431L54.6208 9.78005C54.7006 9.75874 54.783 9.74813 54.8656 9.74849C54.9189 9.74847 54.972 9.75284 55.0245 9.76155L73.7199 12.8312C73.8703 12.8559 74.0129 12.9153 74.1365 13.0046C74.26 13.094 74.361 13.2108 74.4316 13.3459C74.5022 13.483 74.5395 13.6347 74.5404 13.7888L74.6677 29.5018C74.6701 29.7116 74.6048 29.9165 74.4815 30.0863C74.3582 30.256 74.1835 30.3815 73.9832 30.4441Z" fill="#3F3D56"/>
<path d="M74.4316 13.3459C74.4189 13.3543 74.4049 13.3605 74.3902 13.3644L68.8912 14.8508L67.1794 15.3133L62.3105 16.6289C62.2966 16.6323 62.2823 16.6341 62.268 16.6343C62.2582 16.6341 62.2484 16.6334 62.2386 16.6322L42.6063 13.0532L42.541 13.0412C42.4984 13.0333 42.4608 13.0088 42.4362 12.9731C42.4117 12.9375 42.4022 12.8935 42.41 12.8509C42.4178 12.8084 42.4421 12.7706 42.4777 12.7459C42.5132 12.7212 42.5571 12.7116 42.5998 12.7191L42.9948 12.791L62.2615 16.3035L66.4578 15.1697L68.8052 14.5353L74.2194 13.0717L74.3053 13.0489C74.3425 13.0391 74.3819 13.0426 74.4167 13.0589C74.4516 13.0752 74.4795 13.1032 74.4958 13.1381C74.5 13.1464 74.5033 13.1552 74.5056 13.1642C74.5145 13.1984 74.5122 13.2346 74.4989 13.2674C74.4855 13.3001 74.4619 13.3277 74.4316 13.3459Z" fill="#3F3D56"/>
<path d="M62.4312 34.4257C62.3882 34.4257 62.3469 34.4087 62.3163 34.3784C62.2857 34.3481 62.2684 34.307 62.268 34.264L62.1047 16.4726C62.1044 16.4293 62.1212 16.3877 62.1515 16.3568C62.1818 16.3259 62.2232 16.3083 62.2665 16.3079H62.268C62.311 16.3079 62.3523 16.3249 62.3829 16.3552C62.4135 16.3855 62.4308 16.4266 62.4312 16.4696L62.5945 34.261C62.5948 34.3043 62.578 34.3459 62.5477 34.3768C62.5174 34.4077 62.476 34.4253 62.4327 34.4257H62.4312Z" fill="#3F3D56"/>
<path d="M68.8912 32.2614L67.1793 32.7238L66.4578 15.1697L48.0476 11.5069C48.0295 11.5037 48.0117 11.4994 47.9942 11.4939C47.8528 11.4536 47.7293 11.3665 47.6438 11.2469L50.1577 10.5962L50.8966 10.7431L68.3655 14.2175C68.4574 14.2357 68.5442 14.2735 68.6201 14.3283C68.696 14.3832 68.7591 14.4538 68.8052 14.5353C68.8596 14.6299 68.8901 32.1482 68.8912 32.2614Z" fill="#3F3D56"/>
<path d="M68.1243 22.2527C68.2118 22.3276 68.2933 22.4092 68.368 22.4969L78.623 21.2994L79.6204 18.9982L83.2904 20.0493L81.9207 24.2947C81.8101 24.6376 81.5912 24.9355 81.2968 25.1434C81.0025 25.3514 80.6486 25.4583 80.2883 25.4481L68.5468 25.1143C68.3048 25.4863 67.9553 25.7757 67.5447 25.9442C67.1342 26.1127 66.682 26.1522 66.2485 26.0575C65.8149 25.9628 65.4205 25.7384 65.1176 25.4141C64.8147 25.0897 64.6178 24.6809 64.553 24.2419C64.4882 23.8029 64.5585 23.3546 64.7548 22.9566C64.951 22.5586 65.2637 22.2297 65.6514 22.0138C66.0391 21.7979 66.4834 21.705 66.9251 21.7477C67.3668 21.7904 67.7851 21.9665 68.1243 22.2527Z" fill="#FFB6B6"/>
<path d="M78.3827 20.7683C78.3269 20.6458 78.2982 20.5126 78.2986 20.378C78.2989 20.2434 78.3283 20.1105 78.3848 19.9883L80.3551 15.7194C80.5487 15.0584 80.9965 14.5011 81.6004 14.1697C82.2043 13.8384 82.9149 13.76 83.5765 13.9517C84.2381 14.1435 84.7966 14.5898 85.1297 15.1927C85.4627 15.7956 85.543 16.506 85.353 17.168L84.7041 21.84C84.6856 21.9733 84.6385 22.1011 84.5661 22.2146C84.4938 22.3281 84.3978 22.4247 84.2847 22.4978C84.1717 22.5708 84.0442 22.6187 83.911 22.6381C83.7777 22.6574 83.6419 22.6479 83.5127 22.61L78.9721 21.2795C78.8428 21.2417 78.7233 21.1764 78.6216 21.0882C78.5198 21 78.4384 20.8909 78.3827 20.7683Z" fill="#3F3D56"/>
<path d="M112.783 88.9481H0.217455C0.159886 88.948 0.10473 88.925 0.0640813 88.8842C0.0234326 88.8435 0.000610352 88.7883 0.000610352 88.7307C0.000610352 88.6731 0.0234326 88.6179 0.0640813 88.5772C0.10473 88.5364 0.159886 88.5134 0.217455 88.5132H112.783C112.84 88.5132 112.896 88.5362 112.936 88.5769C112.977 88.6177 113 88.673 113 88.7307C113 88.7884 112.977 88.8437 112.936 88.8845C112.896 88.9252 112.84 88.9481 112.783 88.9481Z" fill="#CACACA"/>
<path d="M21.9384 65.8423C25.5508 65.8423 28.4792 62.9142 28.4792 59.3022C28.4792 55.6901 25.5508 52.762 21.9384 52.762C18.326 52.762 15.3976 55.6901 15.3976 59.3022C15.3976 62.9142 18.326 65.8423 21.9384 65.8423Z" fill="black"/>
<path d="M21.0461 62.706C20.9331 62.706 20.8217 62.6797 20.7207 62.6292C20.6197 62.5787 20.5318 62.5053 20.4641 62.415L18.6796 60.0359C18.5638 59.8816 18.5141 59.6875 18.5414 59.4965C18.5687 59.3055 18.6708 59.1332 18.8252 59.0175C18.9795 58.9017 19.1736 58.852 19.3646 58.8793C19.5556 58.9066 19.728 59.0086 19.8437 59.163L21.0112 60.7193L24.0096 56.2222C24.0625 56.1424 24.1305 56.0738 24.21 56.0203C24.2894 55.9669 24.3786 55.9296 24.4724 55.9107C24.5663 55.8918 24.663 55.8916 24.7569 55.9101C24.8508 55.9286 24.9402 55.9654 25.0198 56.0185C25.0995 56.0716 25.1679 56.1399 25.2211 56.2195C25.2743 56.2991 25.3113 56.3884 25.3299 56.4823C25.3486 56.5762 25.3485 56.6728 25.3297 56.7667C25.3109 56.8606 25.2737 56.9498 25.2204 57.0293L21.6515 62.3821C21.5869 62.4789 21.5001 62.5588 21.3983 62.6151C21.2965 62.6714 21.1826 62.7025 21.0663 62.7058C21.0596 62.7059 21.0528 62.706 21.0461 62.706Z" fill="white"/>
<path d="M49.7889 24.5638C49.7686 24.5638 49.7483 24.5615 49.7285 24.557L44.0664 23.2786C43.9956 23.2625 43.934 23.219 43.8953 23.1576C43.8566 23.0962 43.8438 23.022 43.8597 22.9511C43.8757 22.8803 43.9192 22.8187 43.9805 22.7799C44.0419 22.7411 44.1161 22.7282 44.187 22.7441L49.8491 24.0225C49.9148 24.0374 49.9727 24.0759 50.0118 24.1308C50.051 24.1857 50.0685 24.253 50.061 24.32C50.0536 24.387 50.0217 24.4489 49.9715 24.4938C49.9213 24.5388 49.8563 24.5637 49.7889 24.5638Z" fill="white"/>
<path d="M27.9978 76.0171C27.9779 76.0212 27.9576 76.0232 27.9372 76.0228L22.1334 75.9251C22.0608 75.9237 21.9918 75.8937 21.9414 75.8414C21.891 75.7892 21.8633 75.7192 21.8645 75.6466C21.8657 75.5741 21.8957 75.5049 21.9478 75.4544C21.9999 75.4039 22.0699 75.3762 22.1425 75.3772L27.9463 75.475C28.0137 75.4761 28.0783 75.502 28.1278 75.5478C28.1772 75.5936 28.2081 75.6559 28.2145 75.723C28.2208 75.7901 28.2023 75.8572 28.1623 75.9114C28.1223 75.9657 28.0638 76.0033 27.9978 76.0171Z" fill="#E6E6E6"/>
<path d="M30.007 79.1218C29.987 79.1259 29.9667 79.1278 29.9464 79.1275L24.1425 79.0298C24.07 79.0284 24.0009 78.9983 23.9505 78.9461C23.9001 78.8939 23.8725 78.8238 23.8737 78.7513C23.8749 78.6787 23.9048 78.6096 23.957 78.5591C24.0091 78.5086 24.0791 78.4808 24.1516 78.4819L29.9555 78.5796C30.0229 78.5808 30.0875 78.6067 30.1369 78.6525C30.1864 78.6982 30.2173 78.7606 30.2236 78.8277C30.23 78.8948 30.2114 78.9619 30.1714 79.0161C30.1315 79.0704 30.0729 79.108 30.007 79.1218Z" fill="#E6E6E6"/>
</g>
<defs>
<clipPath id="clip0_40_446">
<rect width="113" height="89" fill="white"/>
</clipPath>
</defs>
</svg>
