<svg width="86" height="89" viewBox="0 0 86 89" fill="none" xmlns="http://www.w3.org/2000/svg">
<g clip-path="url(#clip0_40_273)">
<path d="M17.0281 18.856H16.2823V14.245C16.2823 13.9365 16.2218 13.6309 16.1042 13.3459C15.9866 13.0608 15.8143 12.8018 15.597 12.5836C15.3797 12.3654 15.1218 12.1923 14.8379 12.0743C14.554 11.9562 14.2498 11.8954 13.9425 11.8954H10.7115V5.2597H10.1933V11.8953H5.78743V18.856H1.44702V85.6026H25.805V27.6704C25.8051 25.3328 24.8804 23.0909 23.2344 21.4378C21.5884 19.7848 19.3559 18.8561 17.0281 18.856Z" fill="#F2F2F2"/>
<path d="M39.3404 59.5155H38.6972V58.613C38.6969 58.014 38.4686 57.4379 38.0592 57.0024C37.6497 56.5669 37.09 56.3049 36.4946 56.2702V50.1476H35.9764V56.2628H33.6441V59.5155H25.3519V85.668H43.7504V63.9439C43.7504 63.3623 43.6363 62.7865 43.4147 62.2492C43.193 61.7119 42.8682 61.2237 42.4587 60.8125C42.0492 60.4013 41.5631 60.0751 41.028 59.8526C40.493 59.6301 39.9195 59.5155 39.3404 59.5155Z" fill="#F2F2F2"/>
<path d="M74.846 40.7939V39.2262C74.8457 38.6272 74.6175 38.051 74.208 37.6155C73.7986 37.18 73.2388 36.9181 72.6434 36.8834V30.7614H72.1252V36.8766H69.7929V40.7798H58.78V85.6675H83.138V49.594C83.138 47.3408 82.2786 45.1731 80.7364 43.5364C79.1942 41.8998 77.0863 40.9184 74.846 40.7939Z" fill="#F2F2F2"/>
<path d="M66.0354 47.155H62.7963V49.7572H66.0354V47.155Z" fill="white"/>
<path d="M71.3476 47.155H68.1085V49.7572H71.3476V47.155Z" fill="white"/>
<path d="M66.0354 53.7907H62.7963V56.3929H66.0354V53.7907Z" fill="white"/>
<path d="M71.3476 53.7907H68.1085V56.3929H71.3476V53.7907Z" fill="white"/>
<path d="M66.0354 60.4262H62.7963V63.0284H66.0354V60.4262Z" fill="white"/>
<path d="M71.3476 60.4262H68.1085V63.0284H71.3476V60.4262Z" fill="white"/>
<path d="M66.0354 67.0619H62.7963V69.6641H66.0354V67.0619Z" fill="white"/>
<path d="M71.3476 67.0619H68.1085V69.6641H71.3476V67.0619Z" fill="white"/>
<path d="M66.0354 73.6975H62.7963V76.2997H66.0354V73.6975Z" fill="white"/>
<path d="M71.3476 73.6975H68.1085V76.2997H71.3476V73.6975Z" fill="white"/>
<path d="M66.0354 80.3332H62.7963V82.9354H66.0354V80.3332Z" fill="white"/>
<path d="M71.3476 80.3332H68.1085V82.9354H71.3476V80.3332Z" fill="white"/>
<path d="M18.8735 24.1255H8.37878V24.9062H18.8735V24.1255Z" fill="white"/>
<path d="M18.8735 28.9398H8.37878V29.7205H18.8735V28.9398Z" fill="white"/>
<path d="M18.8735 33.7538H8.37878V34.5345H18.8735V33.7538Z" fill="white"/>
<path d="M18.8735 38.5677H8.37878V39.3484H18.8735V38.5677Z" fill="white"/>
<path d="M18.8735 43.382H8.37878V44.1627H18.8735V43.382Z" fill="white"/>
<path d="M18.8735 48.196H8.37878V48.9767H18.8735V48.196Z" fill="white"/>
<path d="M18.8735 53.01H8.37878V53.7906H18.8735V53.01Z" fill="white"/>
<path d="M18.8735 57.8242H8.37878V58.6049H18.8735V57.8242Z" fill="white"/>
<path d="M18.8735 62.6383H8.37878V63.4189H18.8735V62.6383Z" fill="white"/>
<path d="M18.8735 67.4522H8.37878V68.2328H18.8735V67.4522Z" fill="white"/>
<path d="M18.8735 72.2664H8.37878V73.0471H18.8735V72.2664Z" fill="white"/>
<path d="M18.8735 77.0805H8.37878V77.8611H18.8735V77.0805Z" fill="white"/>
<path d="M30.8584 63.0285H27.6193V65.6307H30.8584V63.0285Z" fill="white"/>
<path d="M36.1705 63.0285H32.9314V65.6307H36.1705V63.0285Z" fill="white"/>
<path d="M41.4828 63.0285H38.2437V65.6307H41.4828V63.0285Z" fill="white"/>
<path d="M30.9232 69.6642H27.6841V72.2665H30.9232V69.6642Z" fill="white"/>
<path d="M36.2353 69.6642H32.9962V72.2665H36.2353V69.6642Z" fill="white"/>
<path d="M41.5476 69.6642H38.3085V72.2665H41.5476V69.6642Z" fill="white"/>
<path d="M30.988 76.2997H27.7489V78.9019H30.988V76.2997Z" fill="white"/>
<path d="M36.3002 76.2997H33.061V78.9019H36.3002V76.2997Z" fill="white"/>
<path d="M41.6124 76.2997H38.3733V78.9019H41.6124V76.2997Z" fill="white"/>
<path d="M12.6544 13.3266H9.41528V15.9288H12.6544V13.3266Z" fill="white"/>
<path d="M10.0394 78.7029C10.0929 78.8058 10.171 78.8937 10.2666 78.9588C10.3623 79.0239 10.4726 79.0641 10.5876 79.0758C10.6465 79.0816 10.6297 79.1724 10.5711 79.1672C10.4441 79.1536 10.3224 79.1091 10.2165 79.0374C10.1106 78.9657 10.0239 78.869 9.96376 78.7559C9.95717 78.7457 9.95467 78.7334 9.95679 78.7215C9.9589 78.7095 9.96546 78.6988 9.97514 78.6916C9.98517 78.6846 9.99756 78.6818 10.0096 78.6839C10.0216 78.686 10.0324 78.6929 10.0394 78.7029Z" fill="white"/>
<path d="M68.4137 82.4165C69.0081 82.4813 69.6049 82.3187 70.0851 81.9611C70.1327 81.9256 70.185 82.0016 70.137 82.037C69.6367 82.4081 69.0155 82.5761 68.3973 82.5076C68.3384 82.5007 68.3551 82.4099 68.4137 82.4165Z" fill="white"/>
<path d="M56.5204 66.8727C56.5271 66.8683 56.5328 66.8623 56.5367 66.8552C56.5407 66.8481 56.5429 66.8402 56.5431 66.8321C56.5364 66.838 56.5302 66.8443 56.5229 66.8501C56.5224 66.8579 56.5222 66.865 56.5204 66.8727Z" fill="#2F2E41"/>
<path d="M44.8339 49.2539L44.2561 49.5509C44.2507 49.5537 44.2443 49.5543 44.2385 49.5524C44.2326 49.5505 44.2278 49.5464 44.225 49.5409C44.2222 49.5354 44.2216 49.529 44.2235 49.5231C44.2254 49.5173 44.2295 49.5124 44.235 49.5096L44.8127 49.2125C44.8182 49.2097 44.8245 49.2092 44.8304 49.2111C44.8362 49.213 44.8411 49.2171 44.8439 49.2226C44.8467 49.2281 44.8472 49.2344 44.8453 49.2403C44.8435 49.2462 44.8393 49.2511 44.8339 49.2539Z" fill="white"/>
<path d="M44.9141 49.2052C44.9243 49.2052 44.9326 49.1969 44.9326 49.1866C44.9326 49.1763 44.9243 49.168 44.9141 49.168C44.9038 49.168 44.8955 49.1763 44.8955 49.1866C44.8955 49.1969 44.9038 49.2052 44.9141 49.2052Z" fill="white"/>
<path d="M0 85.8638C0 85.9718 0.0632542 86.0596 0.141755 86.06H85.8575C85.9362 86.06 86 85.9721 86 85.8638C86 85.7555 85.9362 85.6676 85.8575 85.6676H0.142554C0.0640528 85.6676 0.000227539 85.7546 0 85.8627V85.8638Z" fill="#E6E6E6"/>
<path d="M54.3096 11.2749C52.0911 15.7934 53.4688 16.7382 53.6884 16.8548C53.2185 16.6354 47.1114 13.7541 47.9146 13.0229C48.4368 12.5465 48.8839 10.4741 49.1467 8.98885C49.3026 8.10229 49.3936 7.4248 49.3936 7.4248L55.8022 8.60498C55.2603 9.46917 54.7621 10.3603 54.3096 11.2749Z" fill="#ED9DA0"/>
<path d="M50.386 79.9648L52.1602 81.5563L51.467 83.2627L47.4723 83.2575L47.0534 81.2097L50.386 79.9648Z" fill="#090814"/>
<path d="M51.3792 81.84C51.3792 81.84 51.3528 80.785 51.9884 80.9802C52.624 81.1753 54.3365 82.399 54.3365 82.399C54.3365 82.399 60.5072 83.2466 59.7522 84.5851C58.9972 85.9236 55.9559 86.2112 55.1129 86.1269C54.2698 86.0426 49.8956 85.572 49.8956 85.572C49.8956 85.572 46.4879 85.9216 46.5719 85.0749C46.6558 84.2282 46.7006 81.7994 46.7006 81.7994C46.7006 81.7994 50.2842 84.295 51.3792 81.84Z" fill="#090814"/>
<path d="M41.6046 74.1963L40.6077 76.3654L38.78 76.1986L37.6171 72.3609L39.4447 71.3599L41.6046 74.1963Z" fill="#090814"/>
<path d="M40.1092 75.6984C40.1092 75.6984 41.1062 75.3647 41.1062 76.0321C41.1062 76.6996 40.4415 78.7019 40.4415 78.7019C40.4415 78.7019 41.4385 84.8756 39.9431 84.5418C38.4477 84.2081 37.2846 81.3716 37.1184 80.5374C36.9522 79.7031 36.1215 75.3648 36.1215 75.3648C36.1215 75.3648 34.7922 72.1946 35.6231 72.0277C36.4539 71.8608 38.78 71.1937 38.78 71.1937C38.78 71.1937 37.4512 75.3647 40.1092 75.6984Z" fill="#090814"/>
<path d="M62.7991 14.0317L62.7604 14.0831L62.6284 14.2602L60.0971 16.0562L59.5601 15.1696L59.2188 14.5984C59.2188 14.5984 54.1731 11.5594 56.3427 8.63012C58.5123 5.70082 61.7183 12.3432 61.7183 12.3432L62.7991 14.0317Z" fill="#ED9DA0"/>
<path d="M54.8196 7.66005L54.8186 7.66056C54.8068 7.66652 54.8021 7.68095 54.808 7.69278L54.892 7.8601C54.8979 7.87193 54.9123 7.87669 54.924 7.87073L54.9251 7.87021C54.9368 7.86425 54.9416 7.84982 54.9356 7.83799L54.8517 7.67067C54.8457 7.65884 54.8314 7.65408 54.8196 7.66005Z" fill="#3A3768"/>
<path d="M55.0492 8.05627C55.0424 8.04274 55.026 8.0373 55.0125 8.04412C54.9991 8.05093 54.9937 8.06742 55.0004 8.08094L55.1597 8.39823C55.1665 8.41176 55.1829 8.41719 55.1963 8.41038C55.2098 8.40357 55.2152 8.38708 55.2084 8.37356L55.0492 8.05627Z" fill="#3A3768"/>
<path d="M55.2947 8.55029C55.2882 8.53733 55.2725 8.53212 55.2596 8.53865C55.2467 8.54518 55.2415 8.56098 55.248 8.57394L55.4098 8.89633C55.4163 8.90929 55.432 8.9145 55.4449 8.90797C55.4578 8.90144 55.463 8.88564 55.4565 8.87268L55.2947 8.55029Z" fill="#3A3768"/>
<path d="M56.825 5.77279L54.6996 6.84831C54.5739 6.91191 54.5234 7.06579 54.5867 7.192L57.0001 12.0014C57.0634 12.1276 57.2167 12.1783 57.3424 12.1147L59.4678 11.0392C59.5934 10.9756 59.644 10.8217 59.5806 10.6955L57.1673 5.88616C57.1039 5.75994 56.9507 5.70919 56.825 5.77279Z" fill="#3A3768"/>
<path d="M56.5531 6.07898C56.5409 6.08504 56.53 6.09348 56.5211 6.1038C56.5122 6.11412 56.5055 6.12611 56.5012 6.13909C56.497 6.15206 56.4954 6.16576 56.4965 6.17937C56.4975 6.19298 56.5013 6.20623 56.5076 6.21836L56.5167 6.23778C56.5229 6.25 56.5267 6.26334 56.5278 6.27703C56.529 6.29073 56.5273 6.30451 56.5231 6.31758C56.5189 6.33064 56.5121 6.34274 56.5032 6.35316C56.4943 6.36359 56.4834 6.37213 56.4712 6.37831L55.3767 6.93126C55.3646 6.93754 55.3514 6.94133 55.3379 6.94243C55.3243 6.94352 55.3107 6.94189 55.2978 6.93764C55.2848 6.93339 55.2729 6.92659 55.2626 6.91765C55.2523 6.90871 55.2439 6.8978 55.2379 6.88557L55.2277 6.86614C55.2216 6.85391 55.2132 6.843 55.203 6.83403C55.1927 6.82506 55.1808 6.8182 55.1679 6.81385C55.155 6.8095 55.1414 6.80774 55.1279 6.80868C55.1143 6.80961 55.1011 6.81322 55.0889 6.8193L54.8761 6.92784C54.8528 6.93936 54.832 6.95543 54.8149 6.97512C54.7979 6.9948 54.7849 7.01771 54.7767 7.04249C54.7686 7.06727 54.7654 7.09343 54.7674 7.11945C54.7695 7.14547 54.7766 7.17082 54.7885 7.19403L57.114 11.829C57.1378 11.876 57.1792 11.9116 57.229 11.928C57.2789 11.9445 57.3332 11.9405 57.3802 11.917L59.2892 10.9516C59.336 10.9277 59.3714 10.8861 59.3878 10.8361C59.4042 10.786 59.4003 10.7314 59.3768 10.6843L57.0503 6.04699C57.0385 6.02364 57.0224 6.00284 57.0026 5.98578C56.9829 5.96871 56.96 5.95572 56.9353 5.94755C56.9106 5.93938 56.8845 5.93619 56.8585 5.93816C56.8326 5.94012 56.8073 5.94721 56.784 5.95902L56.5531 6.07898Z" fill="black"/>
<path d="M55.9174 6.42975L55.6298 6.57524C55.6096 6.58546 55.6015 6.61019 55.6117 6.63048C55.6219 6.65076 55.6465 6.65892 55.6667 6.6487L55.9542 6.5032C55.9744 6.49298 55.9825 6.46825 55.9724 6.44797C55.9622 6.42768 55.9376 6.41953 55.9174 6.42975Z" fill="#E6E8EC"/>
<path d="M56.0662 6.44329C56.0919 6.44329 56.1128 6.42232 56.1128 6.39645C56.1128 6.37058 56.0919 6.34961 56.0662 6.34961C56.0404 6.34961 56.0195 6.37058 56.0195 6.39645C56.0195 6.42232 56.0404 6.44329 56.0662 6.44329Z" fill="#E6E8EC"/>
<path d="M58.1914 23.857L57.4803 43.0185C57.4803 43.0185 59.8695 42.2188 60.2393 42.8186C60.609 43.4184 59.8411 33.2218 59.8411 33.2218L58.1914 23.857Z" fill="#090814"/>
<path d="M60.4952 63.1865C60.1254 63.7292 57.7078 65.0431 57.7078 65.0431C57.7078 65.0431 56.6839 65.1002 55.4893 66.0142C54.8715 66.4871 52.7247 67.4251 50.7963 68.2214C48.9954 68.9652 47.3833 69.5844 47.3833 69.5844L45.5265 71.7551C45.5265 71.7551 41.3535 75.5504 41.3535 75.8074C41.3535 76.0645 38.9906 72.9829 39.0191 71.6976C39.0475 70.4123 40.614 70.0951 40.8415 69.9808C41.0691 69.8666 41.9792 67.6102 41.9792 67.6102L45.5254 65.2213L52.5791 60.4732L52.9045 60.2538C52.9045 60.2538 53.8431 60.6857 53.4619 57.1474C53.388 56.462 53.264 55.6291 53.0751 54.6146C51.909 48.3596 56.09 47.6455 56.09 47.6455L59.7591 48.8737L60.6408 50.2446V50.2515L60.8399 58.6989C60.8399 58.6989 60.8649 62.6439 60.4952 63.1865Z" fill="#090814"/>
<path d="M46.1034 39.8801L45.3923 53.5898C45.3923 53.5898 44.8804 73.7258 45.3923 75.0397C45.9043 76.3535 46.1034 78.41 46.1034 78.41C46.1034 78.41 46.9287 81.694 46.8998 81.9796C46.8709 82.2652 50.4266 83.6933 52.0194 81.237C52.0194 81.237 50.6257 76.0959 50.6257 75.2356C50.6257 74.3753 50.4266 67.1812 50.4266 67.1812C50.4266 67.1812 53.5268 55.7565 53.669 54.9568C53.8113 54.157 54.7783 50.3583 54.7783 50.3583L60.6374 50.2441C60.6374 50.2441 60.4668 46.1597 60.1255 45.2743C59.7841 44.3889 58.106 37.9054 58.106 37.9054L46.1034 39.8801Z" fill="#090814"/>
<path d="M65.1029 18.2017C64.8753 19.0015 61.0356 18.2017 61.0356 18.2017L60.6374 17.5734C60.6374 17.5734 60.5976 17.4934 60.5305 17.3632C60.2847 16.8845 59.6897 15.7511 59.444 15.5501C59.1311 15.293 62.8002 14.0363 62.8002 14.0363L63.9242 16.4926C64.2013 16.6797 64.4569 16.8969 64.6865 17.1404C64.9709 17.45 65.2064 17.8373 65.1029 18.2017Z" fill="#E6E6E6"/>
<path d="M58.7318 18.5696C58.7318 18.5696 61.0072 20.3724 61.3485 20.2422C61.6898 20.1119 67.2076 23.8535 67.2076 23.8535C67.2076 23.8535 67.8334 26.2527 65.2451 26.3955C65.2451 26.3955 59.7557 26.167 59.5282 25.3673C59.3007 24.5676 58.7318 18.5696 58.7318 18.5696Z" fill="#090814"/>
<path d="M52.5314 14.6029L50.0569 17.1735L53.5268 39.3375L54.8921 38.5377C54.8921 38.5377 58.4189 40.1086 58.7033 38.652C58.9878 37.1953 58.9093 31.4544 58.9093 31.4544L58.4474 21.083C58.4474 21.083 56.8262 17.4557 56.8262 17.3414C56.8262 17.2272 54.4882 15.4564 54.4882 15.4564L53.3846 14.5995L52.5314 14.6029Z" fill="#E6E6E6"/>
<path d="M52.6736 14.7458L51.991 16.1453L52.6736 16.8685C52.6736 16.8685 55.1196 21.8291 54.6361 24.7709L55.1481 34.4534L56.7977 36.0814L58.1061 34.5642L57.4803 25.7672C57.4803 25.7672 55.8022 18.5125 54.0388 16.2561L53.5269 14.2568L52.6736 14.7458Z" fill="black"/>
<path d="M57.4303 6.95981C57.4302 8.00273 57.0595 9.01139 56.3849 9.80428C55.7102 10.5972 54.7759 11.1222 53.7501 11.285C52.7242 11.4478 51.6742 11.2375 50.789 10.6921C49.9038 10.1467 49.2415 9.30197 48.9212 8.30986C48.601 7.31776 48.6439 6.24346 49.0421 5.28027C49.4404 4.31709 50.1679 3.52826 51.0938 3.05574C52.0196 2.58321 53.083 2.45802 54.0926 2.70269C55.1021 2.94736 55.9916 3.54582 56.6009 4.39039C57.1401 5.13771 57.4303 6.03697 57.4303 6.95981Z" fill="#ED9DA0"/>
<path d="M51.5643 16.488L47.9806 12.1466C47.9806 12.1466 47.6495 12.013 48.7679 10.8374C48.7679 10.8374 52.875 14.0523 53.1298 14.5984C53.3846 15.1445 51.5643 16.488 51.5643 16.488Z" fill="#E6E6E6"/>
<path d="M60.6375 44.1187C60.6375 44.1187 59.9549 43.7074 59.9549 43.2218C59.9549 42.7363 59.6135 35.8815 59.6135 35.8815C59.6135 35.8815 59.113 31.7903 58.5896 28.5388C58.2824 26.6229 57.9673 24.9971 57.7443 24.675L57.7352 24.6613C57.1379 23.8901 57.2517 20.1199 53.5258 14.6075C53.5758 14.6418 54.8603 15.5466 55.8011 16.0013C55.9926 16.098 56.1936 16.1745 56.4007 16.2298C57.254 16.4298 60.0413 17.5151 59.956 19.2574C59.8707 20.9996 60.1551 24.9983 60.1551 24.9983V33.1932L60.6375 44.1187Z" fill="#090814"/>
<path d="M60.6375 17.5734C60.6375 17.5734 61.832 20.8865 61.6614 21.7148C61.4907 22.5431 64.4203 25.7992 64.4203 25.7992L67.2076 23.857L65.558 19.1443L64.9135 17.1139C64.9135 17.1139 65.1029 17.8841 60.6375 17.5734Z" fill="#090814"/>
<path opacity="0.1" d="M56.6009 4.3904L54.4393 4.47266C54.2281 4.47127 54.0178 4.49778 53.8135 4.55149C53.041 4.79027 52.6849 5.61513 52.6565 6.3566C52.628 7.09806 52.2014 7.92864 51.3743 7.99376C51.292 8.0078 51.2075 7.98894 51.1388 7.94121C51.0863 7.88516 51.0515 7.81482 51.0387 7.73899C50.92 7.30694 50.7367 6.89552 50.4949 6.51883C50.1536 6.58052 49.901 6.90613 49.8123 7.24658C49.7235 7.58704 49.7474 7.94577 49.7485 8.2988C49.7496 8.74715 49.7065 9.1945 49.62 9.63435C49.2728 9.17412 49.0197 8.6495 48.8753 8.09067C48.7308 7.53184 48.6978 6.94983 48.7782 6.37815C48.8586 5.80646 49.0507 5.25638 49.3436 4.75957C49.6365 4.26275 50.0244 3.829 50.4848 3.48329C50.9453 3.13757 51.4693 2.88672 52.0267 2.74515C52.5841 2.60359 53.1639 2.57411 53.7326 2.65842C54.3014 2.74273 54.848 2.93915 55.3409 3.2364C55.8338 3.53364 56.2633 3.92583 56.6046 4.3904H56.6009Z" fill="black"/>
<path d="M53.7009 4.43723C53.9052 4.38352 54.1155 4.35701 54.3267 4.3584L56.9513 4.26015C57.3359 4.2453 57.7648 4.21102 58.023 3.92426C58.1157 3.81476 58.184 3.6866 58.2233 3.54839C58.2908 3.32757 58.3107 3.0948 58.2814 2.86565C58.2522 2.63651 58.1746 2.41628 58.0537 2.2197C57.75 1.73415 57.2175 1.45195 56.7101 1.19147C56.2379 0.938112 55.753 0.709316 55.2573 0.505989C53.4162 -0.196134 51.3777 -0.166715 49.5575 0.588247C49.3776 0.657569 49.2071 0.749304 49.05 0.861297C48.8306 1.05008 48.6438 1.27397 48.4971 1.52393L47.6336 2.83092C47.5145 2.99051 47.4226 3.16888 47.3617 3.35874C47.199 3.9791 47.703 4.59946 47.6507 5.2381C47.6211 5.55571 47.4539 5.84704 47.4231 6.16465C47.3822 6.5748 47.5688 6.96438 47.7519 7.33797L49.2696 10.4124C49.5147 9.69546 49.6389 8.9425 49.6371 8.18454C49.6371 7.83151 49.6075 7.47278 49.7008 7.13232C49.7941 6.79187 50.0421 6.46626 50.3834 6.40457C50.6258 6.78108 50.8096 7.19253 50.9284 7.62473C50.9409 7.70064 50.9758 7.77106 51.0285 7.82694C51.0971 7.87479 51.1817 7.89366 51.264 7.8795C52.0956 7.81438 52.5155 6.9918 52.5462 6.24234C52.5769 5.49288 52.9284 4.67601 53.7009 4.43723Z" fill="#090814"/>
<path d="M55.8022 28.4554V28.5388L55.7453 38.0522C55.7453 38.0522 54.2948 46.0495 53.8966 46.3636C53.4984 46.6778 44.7666 45.821 44.7666 45.821L40.8131 19.0586C40.7847 14.4887 46.4731 13.4033 47.6108 12.2894L47.6472 12.238C47.7228 12.1248 47.8203 12.0281 47.9339 11.9535C48.1683 11.8176 48.3173 11.997 48.4026 12.174C48.4411 12.2572 48.4708 12.3441 48.4914 12.4334C53.1002 15.8277 55.8022 28.4554 55.8022 28.4554Z" fill="#090814"/>
<path d="M53.363 13.609L53.1298 14.5984C53.1298 14.5984 53.3004 15.5889 54.3232 15.6746L54.4882 15.2028C54.4882 15.2028 53.3846 14.4921 53.363 13.609Z" fill="#E6E6E6"/>
<path d="M36.2304 52.5204L35.7219 52.6667L35.7014 53.1717L50.9488 53.3693V53.1705L36.2304 52.5204Z" fill="#423A59"/>
<path d="M52.9011 67.9758L50.7873 67.7781L50.0455 67.7096V55.9033L50.2412 53.1625L50.2844 52.5524H52.4654L52.9011 67.9758Z" fill="#423A59"/>
<path d="M40.7203 52.1617C40.7203 52.1617 41.8132 49.6631 42.2546 49.5911C42.6961 49.5192 43.5061 49.5911 43.5061 49.5911L43.4344 50.2629C43.4344 50.2629 42.3536 50.3486 42.0123 52.1617H40.7203Z" fill="#423A59"/>
<path d="M44.8429 49.4826C44.8429 49.4826 47.6723 50.8958 47.3026 52.5524L45.7667 52.4667C45.7667 52.4667 45.0272 49.9967 44.4447 49.8676C43.8622 49.7385 44.8429 49.4826 44.8429 49.4826Z" fill="#423A59"/>
<path opacity="0.1" d="M51.4563 52.7124L50.7873 67.7781L50.0455 67.7096V55.9033L50.2412 53.1625L51.4563 52.7124Z" fill="black"/>
<path d="M35.5331 58.531L35.078 66.6802L50.5506 67.9758L51.2287 52.7124L35.5331 58.531Z" fill="#423A59"/>
<path opacity="0.1" d="M35.3226 59.718L35.6253 52.5204L51.4733 53.2516L50.719 60.8605L35.3226 59.718Z" fill="black"/>
<path d="M35.078 59.1788L35.3806 51.9812L51.2287 52.7124L50.4744 60.3212L35.078 59.1788Z" fill="#423A59"/>
<path d="M43.9895 59.8734H42.0839V62.1012H43.9895V59.8734Z" fill="black"/>
<path d="M42.4627 46.078L42.1783 46.721C42.1783 46.721 41.581 50.2454 42.3205 50.674C43.06 51.1025 45.2501 51.1264 45.3638 50.9121C45.4776 50.6977 46.274 48.2688 46.274 48.2688L46.5015 46.3743L42.4627 46.078Z" fill="#ED9DA0"/>
<path d="M42.1783 42.7649V46.8492C42.1783 46.8492 45.1932 47.4205 46.5016 46.4334C46.5016 46.4334 45.2786 42.4793 45.7336 41.4796C46.1887 40.4799 42.1783 42.7649 42.1783 42.7649Z" fill="#E6E6E6"/>
<path d="M41.6095 18.6302L40.8131 19.0586C40.8131 19.0586 40.6709 20.7723 40.5856 21.0008C40.5003 21.2293 40.5856 23.5428 40.5856 23.5428L40.5469 28.2269C40.5469 28.2269 40.424 30.7118 40.5469 31.5972C40.6698 32.4826 40.8075 35.8529 40.8075 35.8529C40.8075 35.8529 41.5765 39.1375 41.2921 40.3085C41.0077 41.4796 41.3206 44.1073 41.8041 43.8788C42.2876 43.6503 46.753 42.7649 46.9806 42.5935C47.2081 42.4221 47.0943 40.8227 46.9806 40.6227C46.8668 40.4228 46.1842 37.7094 46.2411 37.0811C46.298 36.4527 46.042 30.9403 46.042 30.9403C46.042 30.9403 46.4686 25.0566 46.6393 23.6856C46.8099 22.3146 46.298 18.2874 45.8429 18.2303C45.3878 18.1732 44.0556 15.0599 41.6095 18.6302Z" fill="#090814"/>
<path opacity="0.1" d="M41.9451 40.2891C41.9451 40.2891 43.2784 39.5282 43.5845 39.6802C43.8905 39.8321 41.9451 40.2891 41.9451 40.2891Z" fill="black"/>
</g>
<defs>
<clipPath id="clip0_40_273">
<rect width="86" height="89" fill="white"/>
</clipPath>
</defs>
</svg>
