<?xml version="1.0" encoding="UTF-8"?>
<svg version="1.1" xmlns="http://www.w3.org/2000/svg" width="2000" height="2000" viewBox="580 700 860 360">
<path d="M0 0 C1.68403931 -0.0129007 1.68403931 -0.0129007 3.40209961 -0.02606201 C4.63481094 -0.03032196 5.86752228 -0.03458191 7.1375885 -0.03897095 C9.08443039 -0.05123718 9.08443039 -0.05123718 11.07060242 -0.06375122 C15.37944975 -0.08995635 19.68830667 -0.10528495 23.99720764 -0.11953735 C25.48373991 -0.12489909 26.97027212 -0.13027661 28.45680428 -0.13566971 C34.64617923 -0.157303 40.8355516 -0.17603465 47.0249548 -0.1872921 C55.87425024 -0.20349589 64.72310412 -0.23658086 73.57223314 -0.29369295 C79.80427663 -0.33253085 86.03620276 -0.35194151 92.26836401 -0.35721266 C95.98456014 -0.36084946 99.70028519 -0.37268895 103.41634941 -0.4053154 C107.57369081 -0.4412906 111.73009775 -0.43699027 115.8875885 -0.42959595 C117.70932838 -0.45420395 117.70932838 -0.45420395 119.56787109 -0.47930908 C131.38034885 -0.39372043 140.8385288 3.33279623 149.34339905 11.56112671 C153.30128443 16.11900382 156.01800468 21.18964904 158.78236389 26.52890015 C159.41826621 27.71948721 160.05633935 28.90891702 160.69642639 30.09725952 C162.01908466 32.55677553 163.33245128 35.02090969 164.63929749 37.48886108 C167.70453953 43.25825795 170.90786076 48.95119347 174.09486389 54.65390015 C175.34419839 56.90094216 176.59289477 59.14833909 177.84095764 61.39608765 C178.76884094 63.06622925 178.76884094 63.06622925 179.71546936 64.77011108 C181.60439768 68.17106542 183.49232846 71.57257179 185.38002014 74.97421265 C190.94446551 84.9994058 196.51365307 95.02174564 202.11878967 105.02426147 C203.29803362 107.12890447 204.47612058 109.23419621 205.65296936 111.34017944 C208.27426704 116.02892118 210.9074671 120.70912706 213.58705139 125.36483765 C222.08607907 140.20968621 222.08607907 140.20968621 223.59486389 148.15390015 C223.82173889 149.28827515 224.04861389 150.42265015 224.28236389 151.59140015 C225.32394304 163.46540244 223.26496338 174.03230422 220.78236389 185.59140015 C220.42138614 187.31841504 220.06135383 189.04562782 219.70228577 190.77304077 C217.8512751 199.6164765 215.8913592 208.41400072 213.59486389 217.15390015 C214.81173889 217.07140015 216.02861389 216.98890015 217.28236389 216.90390015 C220.66748129 216.89189618 221.53354623 217.11476121 224.53236389 219.02890015 C227.66134487 222.25269873 227.82893683 224.33589332 227.76869202 228.79501343 C227.44697668 233.1607629 226.37915198 237.34779345 225.34486389 241.59140015 C224.87971914 243.53924496 224.41487891 245.48716251 223.95033264 247.43515015 C223.71878479 248.39679077 223.48723694 249.3584314 223.24867249 250.34921265 C222.64626644 252.93339512 222.10115794 255.5204411 221.58314514 258.12265015 C218.78656956 271.86515156 218.78656956 271.86515156 212.59486389 277.15390015 C209.79827854 278.80942147 207.784346 279.40306988 204.54524231 279.39440918 C203.74881317 279.39715851 202.95238403 279.39990784 202.13182068 279.40274048 C201.26723236 279.39554993 200.40264404 279.38835937 199.51185608 279.38095093 C198.59443634 279.38124298 197.6770166 279.38153503 196.73179626 279.38183594 C193.70168068 279.38044344 190.67181148 279.36488586 187.64173889 279.34921265 C185.53995396 279.34548224 183.43816729 279.3426354 181.33638 279.34063721 C175.80599664 279.33300297 170.27571842 279.3133562 164.74537659 279.29122925 C159.10147016 279.27076636 153.45754673 279.26163454 147.81361389 279.2515564 C136.74065105 279.23011018 125.66776621 279.19597668 114.59486389 279.15390015 C114.57340805 278.52083954 114.55195221 277.88777893 114.52984619 277.23553467 C114.42749493 274.34081541 114.31400693 271.44663348 114.20033264 268.55233765 C114.16677673 267.5564563 114.13322083 266.56057495 114.09864807 265.53451538 C113.54660929 252.01096639 109.04434963 243.13867063 99.28236389 233.90390015 C88.30675199 224.51201748 74.93351771 223.16592395 61.02259827 223.92440796 C43.52086671 225.57883552 26.51340581 236.53811327 15.41908264 249.7437439 C9.57353819 257.41670902 5.02973093 265.6819888 2.01210022 274.84872437 C1.74561172 275.65590912 1.47912323 276.46309387 1.20455933 277.29473877 C1.00335983 277.90826202 0.80216034 278.52178528 0.59486389 279.15390015 C-8.01983114 279.29322306 -16.63405169 279.39968253 -25.2495966 279.46477318 C-29.25066116 279.49602166 -33.25095222 279.5383724 -37.25157166 279.60653687 C-41.11605816 279.67196607 -44.97980309 279.70765492 -48.84480095 279.7231636 C-50.31561896 279.73420822 -51.78639859 279.75577684 -53.25689888 279.78828049 C-66.21794277 280.06324683 -66.21794277 280.06324683 -70.80137634 276.24227905 C-75.0512621 271.74814403 -74.79793129 267.68423349 -74.74888611 261.6578064 C-74.2360997 252.18194096 -71.54879503 242.86107957 -69.40513611 233.65390015 C-68.89716983 231.41992946 -68.39100668 229.18554805 -67.88658142 226.95077515 C-67.12323608 223.56943529 -66.35898729 220.1883389 -65.58927917 216.80844116 C-63.34355623 206.94414887 -61.22153532 197.05709484 -59.15513611 187.15390015 C-58.83163031 185.61043014 -58.50806294 184.06697303 -58.18443298 182.52352905 C-56.65022777 175.19329613 -55.13676587 167.8589524 -53.63951111 160.52108765 C-53.06157717 157.69031942 -52.48342771 154.85959532 -51.90513611 152.02890015 C-51.76444702 151.33950348 -51.62375793 150.65010681 -51.47880554 149.93981934 C-49.04227885 138.02074993 -46.42637695 126.14595049 -43.76011658 114.27639771 C-41.48094562 104.12301515 -39.32805955 93.9584856 -37.33824158 83.7437439 C-35.20811773 72.92899748 -32.78392775 62.18019257 -30.35093689 51.43026733 C-28.80202062 44.5682324 -27.28869027 37.71363887 -25.99107361 30.7984314 C-25.78224548 29.70474243 -25.57341736 28.61105347 -25.35826111 27.48422241 C-24.98826209 25.51282141 -24.63506348 23.53814655 -24.30357361 21.55990601 C-22.92177305 14.26294652 -19.938176 9.068194 -14.17466736 4.3140564 C-13.52884705 3.95182983 -12.88302673 3.58960327 -12.21763611 3.21640015 C-11.56408142 2.83612671 -10.91052673 2.45585327 -10.23716736 2.0640564 C-6.70695389 0.31024033 -3.88388021 0.02214743 0 0 Z " fill="#00FF54" transform="translate(1171.4051361083984,750.8460998535156)"/>
<path d="M0 0 C0.82508057 -0.00671722 1.65016113 -0.01343445 2.50024414 -0.02035522 C5.22190412 -0.03931753 7.94331717 -0.04325882 10.66503906 -0.04541016 C12.56447449 -0.05184038 14.46390892 -0.05856891 16.36334229 -0.06558228 C20.34446507 -0.07755139 24.32550112 -0.08126358 28.30664062 -0.08007812 C33.39183135 -0.0798752 38.47646154 -0.10715121 43.56151962 -0.14162254 C47.48564169 -0.16393476 51.40962991 -0.16791431 55.3338089 -0.16685867 C57.20758237 -0.16920913 59.08135984 -0.17800116 60.9550705 -0.19352341 C79.62400596 -0.33367398 79.62400596 -0.33367398 86.68066406 4.29052734 C87.55980469 4.80486328 88.43894531 5.31919922 89.34472656 5.84912109 C93.13596974 9.81154081 95.46801728 14.54786972 98.05566406 19.35302734 C98.66144287 20.45630371 99.26722168 21.55958008 99.89135742 22.69628906 C101.17628805 25.03663365 102.45763678 27.37857936 103.73388672 29.72363281 C106.86714398 35.47443887 110.05950021 41.19253223 113.24316406 46.91552734 C113.86288086 48.03314453 114.48259766 49.15076172 115.12109375 50.30224609 C119.81871794 58.76926555 124.57232117 67.2035656 129.38208008 75.60742188 C141.1060322 96.20433073 141.1060322 96.20433073 139.68066406 107.29052734 C137.75880348 111.19574805 134.74686608 113.79557055 130.68066406 115.29052734 C127.89362072 115.4713037 125.20931583 115.54324238 122.42382812 115.51757812 C121.59419052 115.51787018 120.76455292 115.51816223 119.90977478 115.51846313 C117.17183924 115.51707155 114.43417697 115.50151838 111.69628906 115.48583984 C109.79628651 115.48210911 107.89628202 115.47926242 105.99627686 115.4772644 C100.99854204 115.46963273 96.0009237 115.4499882 91.00323486 115.42785645 C85.90223771 115.40738801 80.80122171 115.39826055 75.70019531 115.38818359 C65.69363376 115.36674191 55.6871586 115.33261153 45.68066406 115.29052734 C45.89142578 114.00670166 46.1021875 112.72287598 46.31933594 111.40014648 C46.59621209 109.68785517 46.87289451 107.97553253 47.14941406 106.26318359 C47.28831055 105.42033813 47.42720703 104.57749268 47.5703125 103.70910645 C49.20285729 93.54258126 50.66915604 83.69305558 45.21972656 74.40771484 C40.52345217 67.94735768 34.42024008 64.22003167 26.68066406 62.29052734 C17.99068301 61.14823254 10.85150625 62.07307802 3.68066406 67.29052734 C-3.19799992 73.50603091 -6.25575472 80.36109108 -7.67089844 89.43115234 C-7.77526215 90.08001404 -7.87962585 90.72887573 -7.9871521 91.3973999 C-8.31480866 93.44385848 -8.630139 95.49196334 -8.94433594 97.54052734 C-9.26800144 99.60293165 -9.59425676 101.6648915 -9.92294312 103.72650146 C-10.21827734 105.58594874 -10.50654691 107.44651403 -10.79443359 109.30712891 C-11.31933594 112.29052734 -11.31933594 112.29052734 -12.31933594 115.29052734 C-15.71487829 115.40713559 -19.10990273 115.47791106 -22.50683594 115.54052734 C-23.46654297 115.57404297 -24.42625 115.60755859 -25.41503906 115.64208984 C-32.57718317 115.74121987 -32.57718317 115.74121987 -36.43261719 113.39990234 C-39.76529432 109.67392791 -39.54157807 106.90869653 -39.48876953 102.07714844 C-39.21769548 97.61887869 -38.21228413 93.42561515 -37.13183594 89.10302734 C-36.67110829 87.16969356 -36.21150968 85.23609042 -35.75292969 83.30224609 C-35.51558105 82.31401855 -35.27823242 81.32579102 -35.03369141 80.30761719 C-33.86141641 75.35649814 -32.77386564 70.38756816 -31.69433594 65.41552734 C-31.48405762 64.45026123 -31.2737793 63.48499512 -31.05712891 62.49047852 C-29.86731468 56.97993353 -28.75994684 51.46291861 -27.75683594 45.91552734 C-26.61994916 39.65619049 -25.24588945 33.48712953 -23.72265625 27.31274414 C-22.74028427 23.2882936 -22.02976772 19.34327307 -21.50683594 15.22802734 C-20.54894318 9.6175126 -17.735841 5.82196125 -13.31933594 2.29052734 C-8.95593881 0.05003689 -4.80033201 -0.00563552 0 0 Z " fill="#FDFFFD" transform="translate(1210.3193359375,775.70947265625)"/>
<path d="M0 0 C175.89 0 351.78 0 533 0 C532.32646008 6.06185929 531.53506092 11.81087384 530.2578125 17.734375 C530.00425491 18.93420013 530.00425491 18.93420013 529.74557495 20.15826416 C529.20940999 22.6897175 528.66717952 25.2198289 528.125 27.75 C527.76916158 29.42960923 527.41369019 31.10929625 527.05859375 32.7890625 C526.70867474 34.43757251 526.3584247 36.08601229 526.0078125 37.734375 C525.77325851 38.83818512 525.77325851 38.83818512 525.53396606 39.96429443 C524.54269187 44.58667333 523.49919003 49.19544344 522.43380737 53.80133057 C522.03048596 55.54591742 522.03048596 55.54591742 521.61901665 57.32574844 C521.31260341 58.64950296 521.31260341 58.64950296 521 60 C505.03193612 60.11677831 489.06401065 60.20496088 473.09562302 60.25906086 C465.68127929 60.28484764 458.26720082 60.3200067 450.85302734 60.37719727 C444.39115227 60.42701836 437.92946927 60.45928758 431.46740746 60.47044247 C428.04536936 60.47696364 424.62388078 60.4922985 421.20201874 60.52865028 C417.38271661 60.56481384 413.56456227 60.56995034 409.74511719 60.56762695 C408.60935745 60.58560333 407.47359772 60.60357971 406.30342102 60.62210083 C398.608323 60.5712657 398.608323 60.5712657 395.76593018 57.90202332 C395.18317322 56.94435562 394.60041626 55.98668793 394 55 C392.88923332 54.0192492 391.74847554 53.07214841 390.59132576 52.14657879 C387.44470609 49.46697374 384.7817229 46.6306709 382.17739321 43.42122302 C373.34025932 32.53153394 364.24289127 21.38593685 349.68354042 19.30858465 C341.8780887 18.4994673 334.03965069 18.66701064 326.20864558 18.89775085 C321.76037151 18.99933828 317.31324572 18.94726974 312.86428833 18.91548157 C305.18724431 18.88090506 297.51573078 18.93995788 289.83970261 19.0658226 C278.74303835 19.2476356 267.64952464 19.28326474 256.55154426 19.28520311 C238.54006077 19.29223 220.53133476 19.4146373 202.52099609 19.61132812 C185.04376852 19.80194586 167.56753334 19.93715048 150.08935547 19.99902344 C149.00891989 20.00286725 147.92848431 20.00671107 146.81530826 20.01067136 C141.39414558 20.02962005 135.97297999 20.04749186 130.55181193 20.06482863 C85.69953898 20.20965409 40.85010081 20.54245296 -4 21 C-3.52121172 18.43742878 -3.04198207 15.87494141 -2.5625 13.3125 C-2.42779297 12.59126953 -2.29308594 11.87003906 -2.15429688 11.12695312 C-2.02216797 10.42119141 -1.89003906 9.71542969 -1.75390625 8.98828125 C-1.63345947 8.34415283 -1.5130127 7.70002441 -1.38891602 7.03637695 C-0.94043285 4.68810444 -0.4688579 2.34428949 0 0 Z " fill="#00FF54" transform="translate(604,709)"/>
<path d="M0 0 C159.06 0 318.12 0 482 0 C481.38165667 6.80177659 480.77455088 12.97472735 479.2578125 19.52734375 C479.08877411 20.28237686 478.91973572 21.03740997 478.74557495 21.81532288 C478.2118849 24.19090492 477.66849431 26.56414436 477.125 28.9375 C476.76892318 30.5200456 476.41345089 32.10272734 476.05859375 33.68554688 C474.58226557 40.2349825 473.06651577 46.76817033 471.43380737 53.28077698 C471.16492643 54.3539898 470.89604549 55.42720263 470.61901665 56.53293705 C470.41474115 57.34706782 470.21046566 58.1611986 470 59 C453.07488714 59.56448307 436.15276872 59.98565976 419.22035217 60.24349213 C411.35509909 60.36648039 403.49574008 60.53358174 395.63427734 60.81054688 C388.76931055 61.0522862 381.90861166 61.20515438 375.03950691 61.25812387 C371.41047472 61.28903738 367.79362998 61.35969555 364.1685791 61.53752136 C351.61490039 62.12944162 339.87648318 62.40262837 329.99267578 53.7434082 C324.66749717 48.81964717 319.99019581 43.35229841 315.38015747 37.76643372 C312.78526411 34.75041458 310.0484473 32.18825262 306.96556091 29.68508148 C305 28 305 28 302.53175163 24.85329247 C298.86724664 21.19354273 295.29478596 21.27161103 290.29505837 21.19933903 C289.13357808 21.21292513 287.9720978 21.22651123 286.77542114 21.24050903 C285.53297823 21.23129893 284.29053531 21.22208883 283.01044261 21.21259964 C279.56863153 21.19309942 276.12877059 21.20040512 272.68708038 21.21906328 C268.9733791 21.2326535 265.259854 21.21163546 261.54618835 21.19483948 C255.11445701 21.17047822 248.68301647 21.16800089 242.25125504 21.18042374 C232.95209451 21.19835323 223.65321849 21.1832221 214.3540803 21.16004442 C199.26663023 21.12333644 184.17928546 21.11333329 169.09179688 21.12011719 C154.43648701 21.12664959 139.7812712 21.12060929 125.12597656 21.09765625 C124.22249324 21.0962456 123.31900992 21.09483494 122.38814832 21.09338154 C117.85559819 21.08622706 113.3230485 21.07882536 108.79049897 21.07130075 C71.19365589 21.00920495 33.59688974 20.99044558 -4 21 C-3.87882813 20.40574219 -3.75765625 19.81148437 -3.6328125 19.19921875 C-3.46523438 18.37035156 -3.29765625 17.54148437 -3.125 16.6875 C-2.96257813 15.88699219 -2.80015625 15.08648438 -2.6328125 14.26171875 C-1.71208169 9.51597661 -0.86477398 4.7562569 0 0 Z " fill="#01FF54" transform="translate(637,791)"/>
<path d="M0 0 C142.23 0 284.46 0 431 0 C430.31524475 6.8475525 429.46692253 13.24999147 428.00390625 19.91796875 C427.81030014 20.81945145 427.61669403 21.72093414 427.41722107 22.6497345 C427.01047247 24.53845202 426.60110524 26.42660739 426.18920898 28.31420898 C425.56210493 31.18931131 424.94347202 34.06613784 424.32617188 36.94335938 C423.92757643 38.78916905 423.52850427 40.63487586 423.12890625 42.48046875 C422.94550186 43.33166794 422.76209747 44.18286713 422.57313538 45.05986023 C422.39632736 45.86792618 422.21951935 46.67599213 422.03735352 47.50854492 C421.88492691 48.20896408 421.73250031 48.90938324 421.57545471 49.63102722 C420.81013388 52.7816213 419.90433183 55.88685977 419 59 C400.54515748 59.61148228 382.09299233 60.06778442 363.63015938 60.34711647 C355.05400213 60.48036012 346.48418775 60.66140116 337.91210938 60.96142578 C330.42671942 61.22328771 322.9459224 61.38891261 315.45607936 61.44630086 C311.49904978 61.47979349 307.55513604 61.55636623 303.60239029 61.74898148 C289.79686378 62.39567648 277.26729023 62.82150598 266.37298584 53.28485107 C260.59810033 47.94873153 255.51841687 42.02156728 250.53002548 35.95859909 C247.81757144 32.78666896 244.97076878 30.08532003 241.74128914 27.45504189 C240 26 240 26 238.37826729 23.84993172 C234.65641268 20.95489257 230.99678157 21.44239904 226.40765381 21.48101807 C225.42418354 21.47351681 224.44071328 21.46601556 223.42744088 21.458287 C220.12296419 21.43794291 216.81916926 21.44612589 213.51464844 21.45410156 C211.14954954 21.44537024 208.78445656 21.43488601 206.41937256 21.42277527 C199.99001568 21.39484097 193.56085084 21.39151223 187.13144207 21.39249516 C181.09567935 21.39158525 175.05998489 21.36857741 169.02426556 21.34752855 C157.06924619 21.30643424 145.11426094 21.28313128 133.15917969 21.27099609 C121.54586506 21.25916977 109.9326147 21.23897727 98.31933594 21.20751953 C97.60350789 21.20558343 96.88767985 21.20364733 96.15016004 21.20165256 C92.5590651 21.19188806 88.96797062 21.18195893 85.37687635 21.17194796 C55.58461614 21.08910838 25.79235604 21.03542976 -4 21 C-3.71469644 18.811661 -3.42144575 16.62435747 -3.125 14.4375 C-2.96257813 13.21933594 -2.80015625 12.00117187 -2.6328125 10.74609375 C-2 7 -2 7 0 0 Z " fill="#00FF54" transform="translate(671,873)"/>
<path d="M0 0 C125.73 0 251.46 0 381 0 C379.76688672 6.78212305 378.51663894 13.54083467 377.125 20.2890625 C376.87000732 21.5321669 376.87000732 21.5321669 376.60986328 22.80038452 C376.25417052 24.53305982 375.89788396 26.26561332 375.54101562 27.99804688 C374.99979511 30.62599488 374.46069091 33.25437053 373.921875 35.8828125 C373.57304117 37.58075475 373.22408694 39.27867227 372.875 40.9765625 C372.63740967 42.13473984 372.63740967 42.13473984 372.39501953 43.3163147 C371.93533614 45.54536312 371.46917608 47.77293138 371 50 C370.82629883 50.83408386 370.65259766 51.66816772 370.47363281 52.52752686 C370.29928711 53.34392639 370.12494141 54.16032593 369.9453125 55.00146484 C369.78820801 55.74375336 369.63110352 56.48604187 369.46923828 57.25082397 C369 59 369 59 368 60 C366.03383829 60.14051336 364.06265102 60.21088978 362.09196472 60.25483704 C360.80688522 60.2851149 359.52180573 60.31539276 358.19778442 60.34658813 C356.75970964 60.37495223 355.32162959 60.40304984 353.88354492 60.4309082 C352.37891811 60.46334864 350.87429476 60.49595029 349.36967468 60.52870178 C335.55939304 60.81844074 321.74706984 60.98491628 307.93448925 61.11837482 C298.65579186 61.21013905 289.38076631 61.33914976 280.10424805 61.5637207 C272.00616397 61.75973155 263.91065693 61.88327925 255.81024057 61.92244023 C251.52863496 61.94546654 247.254013 62.00198768 242.97459984 62.1451664 C213.58601513 63.08839755 213.58601513 63.08839755 202.79783344 53.04719067 C199.6186758 49.63938062 196.72423043 46.0912586 193.91141701 42.37763023 C191.58788623 39.48736767 189.03619382 37.23714582 186.15342712 34.9212513 C184 33 184 33 181.66687012 30.1733532 C177.41893291 25.17638472 174.01109641 21.54908892 167.11995661 20.75972712 C163.24064891 20.54356505 159.38612174 20.58448264 155.50317383 20.65942383 C153.75770654 20.65265293 152.01225239 20.64104437 150.2668457 20.625 C145.55797998 20.59527459 140.85182022 20.63270529 136.14321733 20.68273759 C131.2117657 20.72353984 126.28058599 20.70183985 121.3490448 20.68693542 C112.02395734 20.66816446 102.69996789 20.70512763 93.37507123 20.76240796 C82.75344965 20.82491829 72.13211192 20.82485233 61.51034129 20.81968272 C39.67316587 20.81044858 17.83681861 20.87930198 -4 21 C-3.71163345 19.18697203 -3.41909973 17.3746068 -3.125 15.5625 C-2.96257813 14.55316406 -2.80015625 13.54382813 -2.6328125 12.50390625 C-1.87580998 8.31235525 -0.92398504 4.15793269 0 0 Z " fill="#01FF55" transform="translate(704,954)"/>
<path d="M0 0 C6.93 0 13.86 0 21 0 C22.08669424 5.2424608 23.1717891 10.48520736 24.25317383 15.72875977 C24.6198106 17.50433155 24.98729333 19.27972891 25.35571289 21.05493164 C27.76611488 32.67287193 30.01236347 44.30202019 32 56 C33.51367091 50.11469694 35.02521826 44.22885381 36.53491211 38.3425293 C37.04736831 36.34563952 37.56037595 34.34889117 38.07397461 32.35229492 C40.84107395 21.59374801 43.56980839 10.84047928 46 0 C53.59 0 61.18 0 69 0 C73.57242714 18.61874179 78.06130762 37.23440312 82 56 C82.15033691 55.29842773 82.30067383 54.59685547 82.45556641 53.87402344 C86.30371094 35.91601562 90.15185547 17.95800781 94 0 C100.93 0 107.86 0 115 0 C114.08457211 6.2554239 113.01403796 12.24960389 111.203125 18.30859375 C108.73391505 26.7949611 106.61426045 35.35699114 104.5 43.9375 C103.74128823 47.00953883 102.98092936 50.08116339 102.21875 53.15234375 C102.03441406 53.89527679 101.85007812 54.63820984 101.66015625 55.40365601 C100.11304476 61.60887029 98.4799131 67.78873632 96.81445312 73.96313477 C96.18698166 76.30279829 95.58750448 78.64998206 95 81 C86.75 81 78.5 81 70 81 C68.79097416 76.30856641 67.58231654 71.61704069 66.37451172 66.92529297 C65.9655335 65.33702493 65.55636119 63.74880686 65.14697266 62.16064453 C62.38657497 51.45138668 59.66669459 40.73298596 57 30 C56.8518837 30.60943451 56.7037674 31.21886902 56.55116272 31.84677124 C55.0129935 38.17361943 53.47147291 44.49964419 51.92797852 50.82519531 C51.35191729 53.18794009 50.77671912 55.55089546 50.20239258 57.9140625 C49.37806862 61.30524163 48.5506725 64.69565829 47.72265625 68.0859375 C47.46533218 69.14743011 47.20800812 70.20892273 46.94288635 71.30258179 C46.70271286 72.28344757 46.46253937 73.26431335 46.21508789 74.27490234 C45.89865074 75.57396011 45.89865074 75.57396011 45.57582092 76.89926147 C45 79 45 79 44 81 C36.08 81 28.16 81 20 81 C18.04626963 75.79005235 16.41307534 71.14297133 15.09887695 65.82128906 C14.93262817 65.15354965 14.76637939 64.48581024 14.59509277 63.7978363 C14.0546594 61.62159463 13.5212201 59.44371305 12.98828125 57.265625 C12.61171382 55.73957301 12.23485241 54.21359354 11.85771179 52.68768311 C11.07216629 49.5046288 10.29008326 46.32074962 9.51049805 43.13623047 C8.51160101 39.05700945 7.50414657 34.97995879 6.49413776 30.90347672 C5.71610398 27.75934051 4.94251599 24.61412364 4.17027855 21.46855927 C3.8004394 19.96433961 3.42923568 18.46045478 3.0566349 16.95691681 C2.53755603 14.85939867 2.02446675 12.76050343 1.51293945 10.66113281 C1.21998489 9.46836731 0.92703033 8.27560181 0.62519836 7.04669189 C0 4 0 4 0 0 Z " fill="#03FF56" transform="translate(724,1091)"/>
<path d="M0 0 C0.89912109 -0.02449219 1.79824219 -0.04898437 2.72460938 -0.07421875 C11.54708768 -0.11249414 18.66402167 2.67140135 25.1796875 8.671875 C29.64919254 13.72033147 30.6875 17.62203599 30.6875 24.375 C23.4275 24.375 16.1675 24.375 8.6875 24.375 C8.0275 22.395 7.3675 20.415 6.6875 18.375 C3.59658932 15.94642733 0.51162195 15.97665396 -3.3125 16.375 C-5.77436579 17.34603788 -5.77436579 17.34603788 -7.3125 19.375 C-7.97930368 22.33220628 -7.97930368 22.33220628 -7.3125 25.375 C-4.24496677 29.24700885 -0.88245047 30.56483076 3.6875 32.25 C5.03258843 32.76736694 6.3763265 33.28825714 7.71875 33.8125 C8.38648438 34.07289062 9.05421875 34.33328125 9.7421875 34.6015625 C18.89530461 38.24075364 27.09616441 42.19232881 31.6875 51.375 C32.35177484 59.06316448 32.57743696 66.08595926 27.6875 72.375 C21.7179366 79.20137133 14.5217658 82.67023813 5.55078125 83.75390625 C-4.29151847 84.12195365 -14.22271103 82.39704908 -21.9375 75.9375 C-27.86280433 70.03714432 -28.31865989 67.31956096 -29.3125 58.375 C-22.3825 58.375 -15.4525 58.375 -8.3125 58.375 C-7.3225 60.355 -6.3325 62.335 -5.3125 64.375 C-1.58670911 66.85886059 0.27461402 66.7554212 4.6875 66.375 C7.68905751 65.50853917 7.68905751 65.50853917 9.6875 63.375 C10.52095815 59.91795504 10.52095815 59.91795504 9.6875 56.375 C5.21983792 51.50118683 -1.06462684 49.70203897 -7.25 47.9375 C-15.42260777 45.52286589 -22.00430433 42.27565437 -27.3125 35.375 C-30.43875168 29.16418 -30.36476344 21.67586197 -28.73046875 14.99609375 C-25.93167216 8.46556838 -20.03943222 4.02652093 -13.66796875 1.203125 C-9.08054886 0.07095618 -4.70870361 0.00666483 0 0 Z " fill="#03FF56" transform="translate(1021.3125,1089.625)"/>
<path d="M0 0 C5.46963608 3.48428723 10.77785409 8.83804637 13.0625 15 C13.0625 17.31 13.0625 19.62 13.0625 22 C6.1325 22 -0.7975 22 -7.9375 22 C-8.9275 20.02 -9.9175 18.04 -10.9375 16 C-14.07551189 13.61943926 -17.08762836 13.51876605 -20.9375 14 C-23.52083333 15.41666667 -23.52083333 15.41666667 -24.9375 18 C-25.58903759 21.5325286 -25.58903759 21.5325286 -23.9375 25 C-19.74982786 28.28961658 -14.45573648 29.81291822 -9.515625 31.65234375 C-8.73179443 31.94753906 -7.94796387 32.24273438 -7.14038086 32.546875 C-5.58222764 33.12742274 -4.01802943 33.69207146 -2.44750977 34.23828125 C4.20353169 36.67344517 9.08182262 39.9396911 12.96875 45.9453125 C15.16000988 52.06518831 15.37202337 59.31005415 13.18359375 65.4765625 C9.30809492 72.10200274 3.13936592 77.13913931 -3.9375 80 C-15.51421959 82.29594159 -25.95986362 81.6603364 -36.2578125 75.64453125 C-40.98017541 72.39463943 -43.66733085 69.26679244 -45.9375 64 C-46.2675 61.36 -46.5975 58.72 -46.9375 56 C-40.0075 56 -33.0775 56 -25.9375 56 C-24.6175 58.31 -23.2975 60.62 -21.9375 63 C-18.87320224 64.53214888 -16.3209358 64.22938548 -12.9375 64 C-9.91799847 63.20572041 -9.91799847 63.20572041 -7.9375 61 C-7.50735 58.20402501 -7.70349207 55.85489675 -7.9375 53 C-14.49686713 49.43649766 -21.18549831 46.66831716 -28.2265625 44.23193359 C-36.22200235 41.3817805 -42.48819537 37.13187636 -46.25 29.25 C-47.89228545 21.48646877 -47.51242666 15.30243122 -43.62890625 8.265625 C-40.76947495 4.43543989 -37.16080558 2.14057954 -32.9375 0 C-31.89142578 -0.55880859 -31.89142578 -0.55880859 -30.82421875 -1.12890625 C-22.00825984 -3.78920238 -8.40317972 -3.87537947 0 0 Z " fill="#03FF56" transform="translate(963.9375,1092)"/>
<path d="M0 0 C16.5 0 33 0 50 0 C50 4.95 50 9.9 50 15 C40.1 15 30.2 15 20 15 C20 20.61 20 26.22 20 32 C28.58 32 37.16 32 46 32 C46 36.95 46 41.9 46 47 C37.42 47 28.84 47 20 47 C20 52.94 20 58.88 20 65 C29.9 65 39.8 65 50 65 C50 70.28 50 75.56 50 81 C33.5 81 17 81 0 81 C0 54.27 0 27.54 0 0 Z " fill="#01FF54" transform="translate(1069,1091)"/>
<path d="M0 0 C16.5 0 33 0 50 0 C50 4.95 50 9.9 50 15 C40.1 15 30.2 15 20 15 C20 20.61 20 26.22 20 32 C28.58 32 37.16 32 46 32 C46 36.95 46 41.9 46 47 C37.42 47 28.84 47 20 47 C20 52.94 20 58.88 20 65 C29.9 65 39.8 65 50 65 C50 70.28 50 75.56 50 81 C33.5 81 17 81 0 81 C0 54.27 0 27.54 0 0 Z " fill="#01FF54" transform="translate(853,1091)"/>
<path d="M0 0 C6.6 0 13.2 0 20 0 C20 22.11 20 44.22 20 67 C28.58 67 37.16 67 46 67 C46 71.95 46 76.9 46 82 C30.82 82 15.64 82 0 82 C0 54.94 0 27.88 0 0 Z " fill="#03FF56" transform="translate(1194,1090)"/>
<path d="M0 0 C6.6 0 13.2 0 20 0 C20 22.11 20 44.22 20 67 C28.58 67 37.16 67 46 67 C46 71.95 46 76.9 46 82 C30.82 82 15.64 82 0 82 C0 54.94 0 27.88 0 0 Z " fill="#03FF56" transform="translate(1135,1090)"/>
<path d="M0 0 C6.4467868 3.65421732 11.43244318 8.86601185 13.6875 16 C14.53804837 23.72416604 14.37302837 30.58983089 9.6875 37 C4.76173167 42.70352122 -0.44358833 46.50025833 -7.9765625 47.2734375 C-15.51555189 47.5320308 -21.16077845 46.54264136 -27.3125 42 C-33.1026021 36.1498346 -35.35980099 30.29699417 -35.6875 22.125 C-35.55534647 15.0151399 -33.54602625 10.74404654 -29.125 5.3125 C-20.16554195 -2.05416551 -11.12000245 -4.96851173 0 0 Z " fill="#02FF55" transform="translate(1262.3125,785)"/>
<path d="M0 0 C6.6 0 13.2 0 20 0 C20 27.06 20 54.12 20 82 C13.4 82 6.8 82 0 82 C0 54.94 0 27.88 0 0 Z " fill="#07FF58" transform="translate(1253,1090)"/>
</svg>
