<svg width="44" height="32" viewBox="0 0 44 32" fill="none" xmlns="http://www.w3.org/2000/svg">
<path d="M10 32C8.33333 32 6.91667 31.4167 5.75 30.25C4.58333 29.0833 4 27.6667 4 26H0V4C0 2.9 0.391667 1.95833 1.175 1.175C1.95833 0.391667 2.9 0 4 0H32V8H38L44 16V26H40C40 27.6667 39.4167 29.0833 38.25 30.25C37.0833 31.4167 35.6667 32 34 32C32.3333 32 30.9167 31.4167 29.75 30.25C28.5833 29.0833 28 27.6667 28 26H16C16 27.6667 15.4167 29.0833 14.25 30.25C13.0833 31.4167 11.6667 32 10 32ZM10 28C10.5667 28 11.0417 27.8083 11.425 27.425C11.8083 27.0417 12 26.5667 12 26C12 25.4333 11.8083 24.9583 11.425 24.575C11.0417 24.1917 10.5667 24 10 24C9.43333 24 8.95833 24.1917 8.575 24.575C8.19167 24.9583 8 25.4333 8 26C8 26.5667 8.19167 27.0417 8.575 27.425C8.95833 27.8083 9.43333 28 10 28ZM4 22H5.6C6.16667 21.4 6.81667 20.9167 7.55 20.55C8.28333 20.1833 9.1 20 10 20C10.9 20 11.7167 20.1833 12.45 20.55C13.1833 20.9167 13.8333 21.4 14.4 22H28V4H4V22ZM34 28C34.5667 28 35.0417 27.8083 35.425 27.425C35.8083 27.0417 36 26.5667 36 26C36 25.4333 35.8083 24.9583 35.425 24.575C35.0417 24.1917 34.5667 24 34 24C33.4333 24 32.9583 24.1917 32.575 24.575C32.1917 24.9583 32 25.4333 32 26C32 26.5667 32.1917 27.0417 32.575 27.425C32.9583 27.8083 33.4333 28 34 28ZM32 18H40.5L36 12H32V18Z" fill="#0DF259"/>
</svg>
