<svg width="40" height="36" viewBox="0 0 40 36" fill="none" xmlns="http://www.w3.org/2000/svg">
<path d="M34 12C32.3333 12 30.9167 11.4167 29.75 10.25C28.5833 9.08333 28 7.66667 28 6C28 4.33333 28.5833 2.91667 29.75 1.75C30.9167 0.583333 32.3333 0 34 0C35.6667 0 37.0833 0.583333 38.25 1.75C39.4167 2.91667 40 4.33333 40 6C40 7.66667 39.4167 9.08333 38.25 10.25C37.0833 11.4167 35.6667 12 34 12ZM4 36C2.9 36 1.95833 35.6083 1.175 34.825C0.391667 34.0417 0 33.1 0 32V8C0 6.9 0.391667 5.95833 1.175 5.175C1.95833 4.39167 2.9 4 4 4H24.2C24.0667 4.66667 24 5.33333 24 6C24 6.66667 24.0667 7.33333 24.2 8C24.4333 9.06667 24.8167 10.0583 25.35 10.975C25.8833 11.8917 26.5333 12.7 27.3 13.4L20 18L4 8V12L20 22L30.55 15.4C31.1167 15.6 31.6833 15.75 32.25 15.85C32.8167 15.95 33.4 16 34 16C35.0667 16 36.1167 15.8333 37.15 15.5C38.1833 15.1667 39.1333 14.6667 40 14V32C40 33.1 39.6083 34.0417 38.825 34.825C38.0417 35.6083 37.1 36 36 36H4Z" fill="#0DF259"/>
</svg>
